<mxfile host="Electron" agent="Mozilla/5.0 (Windows NT 10.0; Win64; x64) AppleWebKit/537.36 (KHTML, like Gecko) draw.io/27.0.9 Chrome/134.0.6998.205 Electron/35.4.0 Safari/537.36" version="27.0.9">
  <diagram name="Page-1" id="bl9_lzUSerTA8NvVP16O">
    <mxGraphModel dx="1042" dy="626" grid="0" gridSize="10" guides="1" tooltips="1" connect="1" arrows="1" fold="1" page="1" pageScale="1" pageWidth="827" pageHeight="1169" math="0" shadow="0">
      <root>
        <mxCell id="0" />
        <mxCell id="1" parent="0" />
        <mxCell id="79dWbAI17CPbcTGJxEno-2" value="&lt;font style=&quot;font-size: 15px;&quot;&gt;GitHub MCP Server&lt;/font&gt;" style="rounded=0;whiteSpace=wrap;html=1;" vertex="1" parent="1">
          <mxGeometry x="580" y="180" width="160" height="40" as="geometry" />
        </mxCell>
        <mxCell id="79dWbAI17CPbcTGJxEno-4" value="" style="rounded=0;whiteSpace=wrap;html=1;" vertex="1" parent="1">
          <mxGeometry x="150" y="130" width="200" height="420" as="geometry" />
        </mxCell>
        <mxCell id="79dWbAI17CPbcTGJxEno-25" style="edgeStyle=orthogonalEdgeStyle;rounded=0;orthogonalLoop=1;jettySize=auto;html=1;" edge="1" parent="1" source="79dWbAI17CPbcTGJxEno-3" target="79dWbAI17CPbcTGJxEno-2">
          <mxGeometry relative="1" as="geometry" />
        </mxCell>
        <mxCell id="79dWbAI17CPbcTGJxEno-3" value="&lt;font style=&quot;font-size: 25px;&quot;&gt;Client 1&lt;/font&gt;" style="rounded=0;whiteSpace=wrap;html=1;" vertex="1" parent="1">
          <mxGeometry x="190" y="210" width="120" height="60" as="geometry" />
        </mxCell>
        <mxCell id="79dWbAI17CPbcTGJxEno-5" value="&lt;font style=&quot;font-size: 25px;&quot;&gt;Client 2&lt;/font&gt;" style="rounded=0;whiteSpace=wrap;html=1;" vertex="1" parent="1">
          <mxGeometry x="190" y="290" width="120" height="60" as="geometry" />
        </mxCell>
        <mxCell id="79dWbAI17CPbcTGJxEno-8" value="&lt;font style=&quot;font-size: 25px;&quot;&gt;MCP Host&lt;/font&gt;" style="text;html=1;align=center;verticalAlign=middle;whiteSpace=wrap;rounded=0;" vertex="1" parent="1">
          <mxGeometry x="190" y="130" width="130" height="30" as="geometry" />
        </mxCell>
        <mxCell id="79dWbAI17CPbcTGJxEno-9" value="" style="endArrow=none;dashed=1;html=1;dashPattern=1 3;strokeWidth=2;rounded=0;" edge="1" parent="1">
          <mxGeometry width="50" height="50" relative="1" as="geometry">
            <mxPoint x="250" y="420" as="sourcePoint" />
            <mxPoint x="250" y="371" as="targetPoint" />
          </mxGeometry>
        </mxCell>
        <mxCell id="79dWbAI17CPbcTGJxEno-27" style="edgeStyle=orthogonalEdgeStyle;rounded=0;orthogonalLoop=1;jettySize=auto;html=1;entryX=0;entryY=0.5;entryDx=0;entryDy=0;" edge="1" parent="1" source="79dWbAI17CPbcTGJxEno-10" target="79dWbAI17CPbcTGJxEno-18">
          <mxGeometry relative="1" as="geometry" />
        </mxCell>
        <mxCell id="79dWbAI17CPbcTGJxEno-10" value="&lt;font style=&quot;font-size: 25px;&quot;&gt;Client N&lt;/font&gt;" style="rounded=0;whiteSpace=wrap;html=1;" vertex="1" parent="1">
          <mxGeometry x="190" y="440" width="120" height="60" as="geometry" />
        </mxCell>
        <mxCell id="79dWbAI17CPbcTGJxEno-12" value="" style="shape=cylinder3;whiteSpace=wrap;html=1;boundedLbl=1;backgroundOutline=1;size=15;" vertex="1" parent="1">
          <mxGeometry x="810.85" y="400" width="120" height="90" as="geometry" />
        </mxCell>
        <mxCell id="79dWbAI17CPbcTGJxEno-14" value="" style="shape=image;verticalLabelPosition=bottom;labelBackgroundColor=default;verticalAlign=top;aspect=fixed;imageAspect=0;image=data:image/png,iVBORw0KGgoAAAANSUhEUgAAAcUAAACoCAYAAACR3PW0AAAAAXNSR0IArs4c6QAAAARnQU1BAACxjwv8YQUAAAAJcEhZcwAAEnQAABJ0Ad5mH3gAAE8HSURBVHhe7Z0HmFzVke9LmqichaRRzjkiCVCWSEJkIRBBYIzBa7zPYJawBjl9Xpt9zwEwJhmv/ZkFG5tokRFJAgRCKIGEco4zo1EYhcmjd37VfeVmPKFv9+2J9ec7dE+r+4Zzz6l/VZ2qOo3y8vJOisFgMBgMBmkcfjUYDAaDocHDSNFgMBgMhjCMFA0Gg8FgCMNI0WAwGAyGMIwUDQaDwWAIw0jRYDAYDIYwjBQNBoPBYAjDSNFgMBgMhjCMFA0Gg8FgCMNI0WAwGAyGMIwUDQaDwWAIw0jRYDAYDIYwjBQNBoPBYAjDSNFgMBgMhjCMFA0Gg8FgCMNI0WAwGAyGMIwUDQaDwWAIw0jRYDAYDIYwjBQNBoPBYAjDSNFgMBgMhjCMFA0Gg8FgCKNRXl7eyfD7BoPS0lIpKSmRwsJCKS4ulpMnT+r7goICKXWf8++l7jPQqFEjaUxLSpLk5GRJT0+XJPeez1NTUyUlJUX/NhgMBkPdR70lRYjOa5Cc9woZQoTuvuXo0aP6WlRUpO+PHDmi5MjffAc0btxYUhwZpjgCbNKkibRt21bJkNaiRQtp1qyZpKWlKTHyXZoSafiVZjAYDIa6gXpJihAgVl9ubq4cOHBAMjMzZd++fbJ3z17Zum2rZGdnnyJHXiFL3kOGaiWGSRRAaY3CZAfxQYYe+XlWIp/16dNHunfvLp06ddLWsWNHbfybWZIGg8FQN1AvSBEyw+LD0svJyVHSO3zosOQczNG/s7KyJHN/pmQ5ctyxc4ccPHgw/Mv4QeclOYLs3bu3dMnIkA4dOigZnnbaadK+fXu1LNu51rZdO2nTpo1al7hhIVWDwWAw1C7UC1KEDLEE13y5Rj755BP59NNPZdv2bXL8+PFTLlSICDdnStjNGRQ8lyydWFxcIvkF+afcprQ+jiyHDRsmZ5x5powaNUoGDhyoLleux2AwGAy1C3WWFLdv3y6bNm2StWvXys6dO2Xv3r1y6NAhOXTwkLMSDzlCPKZk5QEXaFLjJElKCq31BQWPdGklYder+yP8ryJNHQG2bNlKWrdpLe2ctYj12KN7d+k/YIAMGjRIunbtKq1atQp/22AwGAw1iTpBihAOa36HDx/WNULcoRs3bJA1a9bK8uWfy+7du+WQ+zeQlpqqDWuwNgS5YD1y7QWFBRrRmpqSomuPgwcPllGjR+taZLdu3XQdspUjzyZNm5hr1WAwGGoIdYIUIRVcoR9//LEsXLhQFixYoFGipE+4W5DGGg0TIkCIkBSK2oKQ0Ri2JvUTB/eGv/ibYJ3hw4fLlXOulLFjx0qv3r30s9pA6AaDwdDQUKtJ0V2bbN68WVavXi0rV65UN+n2bdtk69atak0R1em5ROuSdaWRr655ka8E4+BOzeiSIf3695MzzjhD+vXrp8E6BoPBYKg+1DpShChIp8BVilt0yZIl8s4778iiRYv033E/NolIoK/r4H6Jnj3hFACsyW7du8sll1wiZ511lgboELFKfiSpHQaDwWBILGodKR47dkwtwtdefVXeeustjSrFdVrsiAOoe7SWrBcGAS9IR6NYXePe0h0Jss44bOhQufCii5Qcu3TpEv6FwWAwGBKFWkGKkAIW07p16+TLL79Ud+mK5ctlvfu7oLBQrUKCZ+o7vPSOQqcANHXE2PG002SoI8TRo0eH0jkGDJA2bdtqfxgMBoMheNQ4KXpBNKRTvPzyy/LGG2/IihUr5KQjiPRw+bSGGHQCQRa5vjlx4oT0799fJk2aJBdffLEMcdZj69attV8sStVgMBiCRY2SIoKf/MJPPl4if/3rX2X7jh1yIOeAlDhLKZRXWH/cpH7huVWxHJOSkzXhn/SNyZOnyOWzL9cgHKrjGAwGgyE41BgpUoVm165dWoFm8QeL5J1335GiwiJpnNRYLUSzgv4JXMgE4zRJbyIDBw2UyVOmaCAOuY6UlDN3qsFgMASDGiFFrB8q0bz77rvy7LPPyob163UNzWqCVo5QEYBCjVT9xje+oVGqEydM0MAc6zeDwWCIH9VOikSXkl7xwQcfyOLFi+VAdrbmIyaH1w4bqrs0Gnju1OLSUq2AM2TIEDl7xgw5yxHjgAEDwt8yGAwGQ6yoVlIkvQILkYCapUuXyuZNm9RCpIKLwR+wFqmZOmz4cJk5c6ZMnjxZevbsqUXPDQaDwRAbqpUUX3nlFXnqz0/J58s/l2NHjyohmmUYG7AaNek/P1/GjBkj559/vtxwww26xmgwGAyG2JA0f/78n4TfJww5B3Lk9ddel9dee00+++wzyXdWDmtguEwNscFTJujHvBMnNKUl3xFkenq6ulYNBoPB4B8Jj85gRwvyDnGZUrIt2/2NOKdcmyE+EHVKpO7R3FxZu2aNvLJgga7Tbtu2TddpDQaDweAPCXefvvDCC/L8c8/LJ59+ohYi64fsYmFu0+DglYijEs7wYcNkxowZcs211+oao8FgMBiiR8IsRSzE119/Xd5++21ZtWqVFOTnKxk25IT8RAEXKv1K/+7YsUPee/99efPNN9V6NIR3JSkuVuXBK6Xn/W0wGAyRSIilePToUSXCP/3pT7Js2TLZvWuXNG/WzJLMqwF5TvmgGtD4cePkoosvljlz5kjTpk3rZYSvl6JCwBH7a3rvKQJRWFR4ivj4jO9644/3fM7f5MaipHnvU5JTJDnFveLRcP2on7n3lkNrMDQMJIQUP/zwQ7VUnnvuOTl+7JiuISJ0zEJMPDxrqJHr74kTJ8rVV1+tmxd37tw5/I36A4gQBWzPnj2a7nPgwAF93btnr+zes1sOHTwox0+cUBKkRY4/72/GZXpqmrRu01ratWsv7du3l46nddQyeq1btZJ2/N2xo/u3dtK8efPwrw0GQ31FoKRIYj6C6ZlnnpG333pLNmzcqC49P0E1qtkXOg3/ZGl4b/oQVIDphsKhTYXrExDQJSWlUlxaIqXO2vHAPTduFNpMOTk5eiubPqTyTecuXWTkyJFy3bXXyumOGMlrrMuKCZZgbm6uEt/27duVDLOzsyUnJ0cOOgLk33g9dPCQEiLBRliMFaG01BGje8USpCoQpNeyVUvtJ/axxMJu2aKFtGrdWuvMQow9e/SUTp07KVFSmL0+WuBBg+fGs/Drstbx76xzcm+Jqg4aFNsnYtsveOZcE691eT75AXvc0niWyKtoQf/gZWEuIcfqAgIjRQY7+yCScvHkk0/K58uWSQsnZPy4nJQcih05FBU709JNCEd+fOa1JEcQfAbRKtwr7+riwPTuyQNvi0qK9TP6zLsndguBGCFFv/fJhKf6zW233SYXhfdlrCsDMxIIU+4FpYvIWqKZP3j/A1m9epXs279fJ2ok6KfUpJDLM6kSZYLflTplBBS7vqf/K8NpHU+TqdOmal7osKFDpW/fvtLWESWbQMcDnrlHFlx7fXLTcm+QD2vdPD9c2dGCvoB8sNrZT5S//c6B8kBfM6aovbzfjR+/aNmypSpItIZSLIONG4gTQbnxo9ggb9jMoFevXkqMdWFsB0KKDHzcWOyQ/6tf/Uoy3UBjImAh+hnE+XkF2oFDhw2VEc7C6d2nt+bgHT58RC2CTZs2qoXAYAYIPfZZpOPrkiBBGCMc8p3mBdgjEQHbvXt3ycjIUCGAoKUPP1v6maz76ivZuWOnpKal+CI1Jj6k2KVzZ5l5wQVy9913a//Sb3UJmzdv1rXp999/X9+rRZidI8ePn5CSk44Q0Sgi4YYcikRVQpRxSyv7viIku/GMxYg12d4JxIEDB8o5554rF154YfgbsQFBc/jwYT0/QtbbGqw+ABf3+vXr5YEHHlCl2Y9ABcxrFDoKU2DJB2GZI6tQrkgTY0z5RYcOHbQYP/WH63uEN2OSZ/bII4/IggUL9H1V8yQSzD/66JZbbpFBgwapF6a2IxBSZOAjtBhkTzz+uAp0yMovUR07dtwJ8C5y9bVXy4SJE6V/v34aOEIe3oEDObJ121bZ7gYzW0zhMsvMzJS9e/boQ+JcFAPgNQhtMmgwmCBDUidOlp5U91xGt66qbUKEbAvVvVt3dc2xroW7iMlL3uEbr78h7737niM0fyXx6BfOCXngPr39+7erO5Xz1XZgGR50z/jLNWtCm0476/Dzzz/XPFfQ2P2HO52gGHUXVAN4hrhjcXWnuvHdvXs3uf76612/ft/XmOOZ4Obd5Uhij9PAUfggep4XzxfBgWLEc0JRQpGpS0pfJCB8ntu///u/yxan0Pghe/qj2PXVN7/5TZk/f77OmSAsM/qezcyfeOIJlVle3eWqUBqeT507dZZx48bKD3/0IyXH+gxPhtxxxx3yhz/8Ieq+8sDzYz/Yn/3sZ67PxtWJiluBVLRhk+Cn//d/5V0nuI8cOqwWYizWCOtgXbpmqKAZOnSo7jzPRDitUyfp1buX7kAPWZKH17VrV7WEVn/xhQZT0PnsO4hrtbYJEAYWAhXL8MSJPCktLnXkNEpuvOlGueaaa+Syyy7TraCwPBCE3DMWCe4G2vYd2+WzZZ+pIPZTBYjBSysudJap69tMRyhY33VBu0XpWblypfz3/ffLyy++KGvWrpWSomKnbKWFIkR51qwtV6P+Q1+qS9ZZoSx3FzmCHOSE4qTJk0/1dVVgLKBEIpSff+EFFcxPP/207hhDW7hwoZZDxDPAvUGKjIW6ajlyr6z9snn40dyj0sQpezy/aBr3zLxGkaO2L8p2EF4OiBpX4PLly2Xjho2qgKampJZ7DZGNtCfc7K1bt9I5xHNHga3vYMy+9dZbmlHA9nXR9JXXTp4sVXk2ffp0lW0oeLUdcbMHvmYq1UBO+/btdQMsrdJ1nKqAJkiZsoo20EWTxo3CRIE8ESr33XefFsVOcRPmqCNoGpMpEp7Gg4v22NHjkuussCMBNKzb/Lx8dYdCfGUBEXKuY+6aEKC3fvdW+c2Dv5G7//MuOfPMMzUqFLIrT6DyOeSPNRkrOG5akzQ5kXdCVqxcoQN7y5YtvtZ2qhMoWLjb/vKXv8iDDz4o27Zsc5a16GSsLcRQUloijd0Y7+2se9a6uK5oCJE+Z7785le/lv/3f/+f5vASENTU3VvZtm3bVo3evvcH98rfnn1W+4XxazAYEouYLUXP+vnCkSGa7fLPP9d1EbSuaAREJELHOilpjlD7Dxggl156qWoX5YFjoy1CmhAKfuqOHTpK8xbNVWh4miQCqMhZknymwsT9DpJp1rSZrtm0a99OLVGOgQYD+XitW7dupxp/8+80BCDfRzts666vtWsQdHpaulot6l5zmrF3ThqaESQ/0F0n2tKsWbNkytSpMsBZhVwHSkBFli2f8++QBAFMaKpYKH77l2jd4uKiU88H67N37956bL/HSiS8tZ733ntPCz98+smnUlhQqKSTkhLKJ6wNYFylpqXK2HHjZNz48VFv27V7927dVPvPFMVftkzr1fI81fp09xjZ8H5kZWaecjl26dJZ3arxBvVUNzxFAEvxyOEjviw95AJ9nUhLccOGDTq2WIOuCt71EGiDbJg4aVKDshTx3GD9+ZmHWNZ1zVKMixRZ92GwP/zww1rCDbdpLK5LCJHB1qtXT137mjBhggruaAG5EKjCxOnkiI51yF1OAKGFe6HEKY4QWSDHWhtz+ulyxhlnqPsDV+w555wj5513nu40wWvke/7t7LPP1jZt2jTN/cONi3sXQs7omqGBFxAi2vyBnJxT56SxtRObAX/3u9/VY+EOY3JHO7D4HgEKW511d9xZpYWFBSok/YLj4HqFdFi/4l4g9NrkaiaIisAHFvW3btmqlr9HGLUJeCHoO8YEYwFlKRoQiMa6zMZNG5UscCVWqBC5e0YJKnTKDOOK9fPBQ4bUuWLvRop1H0aKUYLwaqyX951Wv8INLqyOWPN26Li8vHxdtD7dEdZwRyR+8pIQLJybScOApfO7OQtv6LBhurjrkRykxNrdqNGj1HIjuIXBjVCDMHFT8gAhWbRymvee17Zt22pjsZiITgiOY7AWOMpNXAgdsh09ZoyG7Z/pznXuuecqybMGgSBlUvvto927diuZIVywIPwE20SCfkJhwGKmj7C2K7LIqxMoV6whvvTSSxrhRgAK+ZpcbyzjKdGAFFu0bKFWP4pRVX1Y6JQjSI01Q/J3UZYaNw7l3VYE7pp753vUtKWPhjpSZOz5URhrGkaKdR8NjRRjMhMIcMEVR+War9atUyEdT01TorqI6mvhBhvkFIv1wrm5DvJhsIKuvPJKmTdvnq47futb35Ibb7xRrrrqKiVIiAvi7devnw5uBA1kB/kx4CELCMxrfOYRI5OAh9vHWaYeiXO+Sy69VK677jo9F6HanJswcgQn5+KYsdwXYCB1cNfY2AlR+j4WhARsKEKXZ4fVsmnTJnXxMuhrCpybgg8fffSRrrGRgkJ0Z22zDj1wvYxygg0Yq4yJqsC6Mtb+Dtey3b3iGUlOqlq465h2Qqggv0CjVFGMINdowVghrYdoS0jAb8OdzXKAwdCQEJOUZqKxPgIpsuZBkn4QGhykhrCJlVw9cJwMZylCerhV0VSwZBMN+gASZR2S82IdVhQw5AesXzVv1jyuACYPuOxOHD8ub1EwfO1afZblBQhVFyCZNWvWyE9/+lNZuWKFkkV8Tz9x4FpLikvc9TUKlYZzilI0VhvEsnPXLiWnWMEz2rtvn5JVtMDtSk7v0qVLT0W3RttY10VpOnLkSI2OD4OhuhETKaL1kpdIuS1cQWj18RIZQCtOSY3NBRsJfo+LEBcsLRaXZSzgHPSFd26IOAiLh+PhrgtC8cBaxDV52Ak7hB6EBDHWBLBS13z5pbrhGVO40P3mQVUGj8QgJay1aBvuyvIsaP4uKi7SOqk9e/eSlo4Uo3km6lk5dEiVkVgBMeW6Z8ayRbQgkOerr77SOsR///vffbXnn39ePv30U02nMFI0NCT4IkUVMk5YIExxd+FeidUlWB4asc5SS91mNQn6BJINqm888qY6DIKP51iWABINBC0KFdGYnzlLhvMTJau5h3GA43Bsr/E3QSupTtlKb5IuTZs1lWbNm32tNWnaRP+N6GeUMo3yLedYpGKwntjhtI7Sf0B/9QJE80w4DkQbq+sbcAzyeMk3jRYEVPGMmausCeGejqbxXYiUXErKoHHvBkNDgS8JxKRmouF2wyWDxcHO70EBIckiOALA8E/QL2j9BC0EAawbXN6bNm7UtUWCXFB2qhNYb7gTlzorcfXqL9RtHs06W1UgEOJEfp42xlGz5k3VlT1+/HiZMX26XBzeTstrsy+/XGZdcIFGkhLMwRpxn759NKL4pPvPOxaN50ChetaVCbCKNhiM/mbtsWkcQQYon2y/RrBJtNA1ZHduXgnqIdezvJzIss1bwvAK8BsMDQm+SBE320YnSFnwpwQXxaqDnDTq5srPN1IsAzZoRhmheHUQljkCj3QHXHG4LbH8KTVWneB8RC0zlo4cOayViGJ1m2K9MXZo7dq11TQJApyuvuZq+caNN8p1866Tq66aK1dccYXmwEKMp9oll2hFoStmz1aSnDt3rvv+PA3MIlCKrbf43oSzztLgqqZNmmpeLHme0RKUF+0bT6Qvz5282vYdOoQ/qRr0pzdeeI9rmvlaVYv8jbZau8prMAQPXxIWNxt1DAmyUQFGCwAcheNBiAQHmLvm62Cdi/UkZ6ZIcuP4rSkP9DmKzsoVKzVHsDqxx40hAjq0lqmOpfA/+AQKVClbbjmrLiUtVdNjLnPEx84g982fr/UpyRGFGC9zViGpOYSHew0LcdaFF8qljhiJWIYIqdM5/4c/lJ/89Kfy4x//WOs+Xn3NNTJ50iTp2iVDunfrplHO0VqKrC0TdEW0KpYbtxqt4sf3ICnORQpQXctTNBjqGqImRYgKd9eiDz6QnTt2aNSdt/YSL9Bgm7vjsbsGSepBuQnrCw4fOqzJ7IVFBZKUHEyfA6J0yaF7e+HbsnrVqvCniQVCnue7zZHw2wsXujF1SNJw18XAirh8ybvEnTllyhT5kSOy7zsCu8hZdpAjLkssH1XgYgBERO4q7lcI9OZbbpEHHnpQ5joLlDQe+i8a8D2+T2HkwYMG624b0Yxx5lx+YYEG9owcMVKvoyHkxRkMNYmoJSyuNqJNcbWR54b7LVZhUxZowriYcKkhLLFI4wlKqC9AKGqicXaW7Ni1U92DCPmggDLCuvDWzVvUUiT8PtH9DpGRl0iqAHvsedHLfsFxIJeu3bpqkXisQyw+6slCHuSdQmrxjFGsOlykkCtWGvmm02dM14R9ckejvW6+x/eHDR2mebLkxlJhiUhW7oNdUzyELN/Qfn+sX3IPEOn5M89Xa9PPmqLBYPCPqEkRQcb605HcXJ2w8WjgZcFxOB7nQFBikUIGDR0ITBQQIgAJjYcUvfWeIMCx6HuskRzX5xBVovude6AgOS74eFBQVKj1bqlQRIGGG8J729Vm0qCSEoUdRowcoQUhTri+LiwMEeMpOH4kjYRIU410dZbh5MmT9HfkvxoMhsQiagkLWa1ft16KCorcj4IhQw9oxriTWrduI10zumpAQrTrNfUZkBYWBi68zp06OcUh2SkkiYkSxUqn8DhruokEz/mrtWs1wCYWQCB5+XnStk0ooIatt6gsFJSClkig+LXv0F5u+uZNurclQT0DBw7QVBDcwNxXYXGh7hHJvRHs84N775ULZs1ST0qQCpHBYCgfUc0yXDpUriHRWmtSRuk2ihaQYoHTmNltgNB5SDHa9Zr6DIQglg/h/1hEJPBjPQQJyARXOK7xZZ99ppZposA4IphqnSNflCzct0Sd+gGbNJN20a9/Py3OznhhQ966AJ4nFY/OOPMM3U2eqNfzzj9Ppk2fJhMnTVQ3MEXqp02bKrNmXaCRsuzqP2TIkEA9MwaDoWJUSYreGsf6DRtkxaqVjhCpFhMsYSHo0JJZr7lq7lWBlEarD0AIsq41ftw4+fa//Zt06tzZWVrB1qJU4nVW+a4dO+Wdhe9qzmKi4JEiFinRp7HukUi/TJ06VQu8V0f5vkSAIvREvv7HnXfKbx54QB5//HHdG/Sxxx6T3z3yiPybe94Qvs0Fg6F6USUpIsRY0yJ5nKAIEJTGSngB6QaEqs+96ioZM3q0BkjEIijrK+hrCqVjLbLjxshRo3TDYqylIMDx6e+SkmI5fOSwrucS6JQIkP7BujEuWtzAfsYRhKpF41s0lxEjRmiwi7fBb10Eyg4R3BSaZ/yzTyeNlAtyESkhxxJCTbpMObee3wxUQwLBkgiyAdmDxwovEpWYyInfunWrxh9Q85dcbY+DEokqZxyBFwRgBC0oEXIk/0OM3bp1lysdKbKdE27ToEi3voA+waXM3o9Yjewqov3nWhBA8HEkSIe1RaJQEwHGEIOeYJtYgCLQtl07mThhgvTu1UuDVerSWGFCM7HpXxrvafQLQoGGwuB97n2XVz7/WkBOFIh3jOCVyHPXxPVFXlNk866Pa7dUqhAY395zjHzOlTVvTPA7PHN+wXPW9XYnr6M9p9f4Ps+P3wclUyLBHPUax+caMbLwFlGbly28qKW9ZMkS3WRi0aJFuq8qRek/+OADWbx4sXz88cdaRY3tq6iotmf3Hr3uRFxzI3eBlR4RQuRCn3rqKb3oVlHWe6wK3Aytbdt2cu5558m9992rWrOtJZYPHjwD97VXX5X/+q//0hQZ6mAGZSkRCUmKA4nrF1xwge5hFzRwmzLIcROSd4nbNlro/efn6Tribd/7noxw14dlVZeAxosWzL14QqIy8D0acwKrskePHqoIRIsvvvhC65g+++yzsmnjJmkaZWQudVpRkGaef75MmjRJ+7qieendC8Fg5FDyGgmEPAU/vuee2Y7tO3yVhYQceOZE3s6fPz+w3W6wSKjryjhc8I8F0qRJupa0qwrIK66na0aGpv785w9+oPmwZcH+kXhEmKNe/1QG7znzPZ4v+ax+75Nrw6uH0olnL5rxBbxz8+zwvDDO8GJ44N84NgUs/vjHP2oZQD/ei/yCfOndp4/84he/kLFjx+pyAPulYgVCbh9+9JHOCZ415+GVc3qKgXcfnBNZp9voaV7yVF2bx2ukOfMBeoyqJEUE2QvPPy+vv/6GrHOsHsrPit+lgzaF5j99+gy56OKLdK9DI8SqgUb1zNNPa5FnFBaETDSDvyrk57PxbWO5bPblGgRC5ZegwbW/9tprugsDml60pOhNTMbLhRfOkvvvv1/auYnBWKwLUGHqFBrqzL7++ut6PyBaocWEJ1fy2muvVbdx2XmC5s0OHOx8QqEH8lpxO5H6Ql4x2ji7dLALTTTgegnogoQzumaoS7cyQcj1sU0bG2tTRCHyvhoiKT7zzDNaaB+SihY8Z/qNSklUVvIIKlpAwDxzLCosLz8ygXMzrljDJqiLfvbgzb14SJFt/G6//XZp6QgxMzNLdu/ZrYrD3j17ZPPmLRrcF+0xCQpMT02XfgP7O7LtrTm/1CseNmyYjlOitONFlaS43A3o3/72t7Jq5SrVQtLT03x1SkUgBJ1crHvuuUcuueQSHVxBHLe+g8G0evVqefDBB2Wpm3gMtCD6DSXF6WMyZuzpctnll2k6QNB415EChAg5HDiQEzUpMinJ3WPAz7nqSnnwoQf1noNQBqoD9C2Ww+9+9zt54IEH9Lr9Ci0ssEceeUSDi7xcTI6La5ONhzWXVS3RkBaOywlyJLqXtclYiq0zR9k5vTJwbZA0goloWkrqRd5bUKT4wx/+UBWDukCKt9xyi/zlL3/5mrUTDehLPDQ/+9nP1ALyU72I8cUzxyvwyiuvRD3GOCeN6HaeHwoxypAH/i0eUiwoLHAk21YuvOhC2edk17LPlsmR3CPqjQApblximUZap5VBt4IrKJRQYccQdV1++eVyubv2cY7UmSfxpvNVeXeHnOa58vOVkuOEGBfuZzJXBTqXB0AL8rj1GQgGKqvgag4S6n5wj2Drls1axi8RYB2BikW4av2A6OTSRiele88eqhnWJUIsC64bYiDyNtpWkQeFKkS/f+L3ukHzfffdJw84Rekvf/2LLP5wsVoObITM76MR+OUhzSkhZa+lbEsNXxvXmChPD8+bY9f2Z+4RSDNn4bVs3kLLF6anpZfbb+U1UpRALPfJb5jDvKoiFOUY4/r8kJxf4J3AS/LmG2+op4j3KGicW3dkcWPMj+uTreXI60Wh9u7hkyWfyO+ffFJefPFFVQjjRaW9wcI5ml5WTrYuuicnx58rxcBBw2Un+cHOZMfkxQ1W2wd8bQFaEBokigT5eSUl+OLjL6AeIhqncTotmrQMnpGn6QaFg44UdzhBXlRY5GsiMmb4vufOq8tjRYWWIykEYLStcaPy+wriW7fuK/Uc0DZv2qxuaVylBLGhxHqCMhbQ5+VdT2Tj2kL3FI5UDRgUCuGeCLzAw1De/o9+G+vauBizs7Ld0UP/BQX6gn5n+y3deiuKPvRao4jnHMszO/Ub98q5yztH2cZSWJD3XxaMCXLbCeDLPZKrJQ29ccXY5L2fe9Wx5q6Z33r3cOjQQd0s/Q1HvFjLLBlAvrGi0lGsaxV5J7QGoxv9gQx6OiX/RIG0b9dB1x8IRzdED54B2hVrOP369lN3QlUurmigg80dm2d+1AlbXtF6gwRrB7t275Zip2wl+7ReEDTde3TXtRZDCCgtqry458SzC1kH6ar9Y1kFMV9rGo5qZe2Xa+R//vAHZxU/IY8/9njc7U9//JO88o8Fsn3LNkmqQOGIBd4cgpQM/wR9kpaaFrIKAzCsygJrNP9EnixetFgDy1hXRdagTMeCCkcEByTk9ZCzHIK0GLjMUvdfy9YtNMrKkpNjA3UwuzmSKHEKS2RB6SCAh4C1qqBC7BlLHAuSZTqohugzWIuJRWSen+hLQ90GwjMlLUUO5x6RNWvXyipnDROSH29jPXHLpi1y9PgxPX7QQtpQ/VClMD1N1n21Tt2oGzZs0HSTWFCpZDruLIbjcZih5YPl0ZPS3JFh9x496kwEYW0DWxHRYBlvwTkoQGAoRIkgRbToRm4AxyKIUKD8ROQBzkn05Qfvv6/ulTffeFPeejO4xloJ7aMPP9SEY0NwYIygQOFZIKr2YE7ItR9vQ9FH6SspDnZjA0PNgWfIWmVOzgFZtWqVRv8SjRsLKrUUNV+psDBmM7QyEEHHmlhdLdNVk2AAQBAE3STCRQaBITSC2kYKT8MpUowR3CeE6JcUSZh/+eWXNbfzrv+4U+6+6y655+57Amt33XmXa3fKL3/5S1m4cGFC5kpDB65zciyDasietCZp6soz1D8QB4PCSrJ/LKjCUjyuwjERE52BHsp5tIEZCzyCSISWC5EQto5CFAQYPxwzHsuT+2S8+NkaivNyzu3btsmGjRslMytTsrKzNcAisOaOtz8rS90227ZuU+I3YjQYogPzBeWbFsQyELxC6BC78JCnS6qK39JwlZPiieMaxZMoUkTAGSnGBvrOD0H4AWQY9Jqibpobx9o0pIhXwU9yLuflnOzufzAnx43lPMnPy9dJElQjQTvPHRe33JHDhwNdfzcY6hOYGwQFRjagEbqOD1gG8j4noj4W3iHqFlnh7Q8LOfqNRK3UfcqE91OVwQ8gQ4SckWJsgBwStedkqRuQCHxe6zqwo4lgTG6ULKnJ5NIlq9ssqEbkG8f1S9gGQ0MDijFR7aea4xbmUNNmzUJ5147MvH8rLCzQyPp4DDK8OKwv+t0Or1JLEcHIBcZzYRUBNk+E66+hgDU2WiL6kBSc4iJn2ZGKEwA8i62mrSgdc/wXHntBNFiXVxKmGzWu3vFMjhYuZdIv6Fuqh1BW6+vNKTcx9juegn893tebt1sLaSAWH2AoD2xgQPUyivmfPnasXD57tnzn1lvl3nvv1U20//MH/yl333O3lvKjShDb5I0bP07Sm6SHLMfwGPMDFOHszCwtGBAoKeJGS1SgDcf0msE/EHSJWr/i2EXFRYEem2Pasw4WrClTbJlSY9Su7Nuvn/Tp21cb77t26yZt2raRxk4b90OMPCe+36x5c93D0zued+zI1n9Afz13n759pGOHjuEjGAwhMJZQ3sgvHj1mtMycOVPmzp0rN910k24+wL6hN99yi9z0rW/Jrd+9VT/j384773wZMHCApDpFy6/sQEklD5oqbF+sXu07rbBSUkwkEOi4Zv1crOGf8NazEgGeSbxrgIbEA9KbN2+e/PgnP9G6qF579NFHddPiH/3oR1oXkgIZ7HoRLSgGnu+szrPOOlNrlnrHjDxHZHvooYfkO9/5jpzpvq/Ws8EQBhkM7Tq0l9tuv03uvvtuuf7662XChAnSs2dPae6UrsgiEyylEVVPUfQ5c+bo2OvnFC+WJdSVGmUgDmMwJTVFCooKZM/evXIkN9dX0GCNkiIXaoI3NnhWfKJgVl3tB4FWFHHAUqSQtNcoJk193AEDBqiGjluz1EdkH8+ehrurd+/eeiyOGXmOyMa/I+SCrsdrqPs4ebJUxym7WAwePFjHI6lkXpBlZEqZWnik3zRtquUc2bKMAviMYzxXfpZzWMqAWzAcyLn2tvGKBjVKihrMYaQYEyBE+q+ukFcQFoQR9ddBnyJUvKCryMZnCBharH2v9TPd7wkmgljLniOyRQq3oMFzZ10q6GbjqXoA+UGEfnKMGXd4OC6YNUtGjh4lRSXEOPh/XjxjSDHXtWhRo6QIi/Nq8AcetBellYiJjYALclcCT3jHIzhVMDoFypSohgeCLbzxHmTzUgIMtRMoW3379j21mTg1fv3yBXIDQvSTb1+plEIwBikcI4Glw1ZCQeXCNTSgUCQqhxTyQlMLUvsv6yrxC+4TQeZ3HTXUO2RABd9PhsSCZ050K5WvJkycIFOmTpFp06fF3SZOmigjRo6QNm3b6vETMYcM8QOZgUselyvueYJuYiJFR4i0aFGplMJlkqgEcQR6VlZWwoJF6jsoZURLCCk2cpZickqFWxb5BUpVEKTIugD37BfsxciWpMDIse6AZ06aycBBg+Tmm2/WDYwJvoi3sQnw7NmzVdDqEk5AqUeGxABLccyYMdKseTMpKfVPiliJgViKjdx/3npBIixFtH5IkUFp8A/KF2VlZkkjN595VkEiOYUSfE01sTYIMH68Na5YwYBGkWLcRAvPbQsQfIXF5N0V6CbH5TWSidnQ2FC7wG7qQ4YM0WCNIBopJEQ4WmBQ3QBrkWx+EEtxDOQG3kg/FmbFqruTsy2at9Cw2SBJkWMhHPOcgGPn8Fg0f4MoIWY7pYJgiMYBJ43jMic0mtcgADGdIkU3SNkAN1qtzQPf1ygyH24Qxhr3cPrpp2t+1DnnniNnn3O2zDh7xtcan02eMllGjhqpE9DWuWsX8FYRdIFgxJUab+M4bdq0sWIDdQQ8/zat28REioBNzf1E6ldsKTqB0rpNa2nbtm1cbq+y4LhshIorbO2aNTHvedWQAUFgZWdlZ0lKWijCMEgw+NCigyRFPA4cDyqEdPyWkOM3FCk/5LM6BRPq1ltv1Ty73/72t//SHn74Yfnd734n999/vyYOd+rcSXOrDLUHBFdpwWifipShfgB5xD6qscg5xgyVlwoLAspTRIjFys4VAVJESKLxb96yRYNtEplvV99AX2Ex7dm7RzIzM7U/aUGCwcd+l0GSLdeI14GqJ8lJobJkfgAp7tixQ/bs2RP+JDpwXkqhodxhbZTX2rdvry46wsZDioAJ39oGI8SGCyx6SJE4h1gQko7Rj59KSRHtngsKWuhCiqztYO0g2LEWbdBHB9bUIAb6zrOyg34+EAPu06AtUEina9cMrTbhhxRxDzM+du3cKXt271aC9DNeCPLhnrw18sjG+Ebxo3G/QfelwWCID8zdps2aSuOkGD2WzGkf87pS9ynsjCBLlKBAMO52Qm73rl2WfxYlKG67bt0630Vu/cBzV4SspuDQzllr1Muk0K8XDRoN2FGbnSj27dsvu51CQMBNLEWCKwPjzy/ZGgyGxAP+qU5ltUpLUTd2da9Yd0ESF3topTjNfN1XX8maNWs0MdNQNbAQP1z8oe7dF6QVDxnQ2JkcK5G1uKAtxVatWktGlwxJS/cX4OBNCko94W7fumWLrkkHDSNEg6H2AQWY1L3qMpyqXFNs1rSprrmkuvdBatLq0nLa/4YNG+TLL7/UkHiObygf9DvpK3t275ElS5bouiLPJChSpO8ZdG3btNUG4QYZYAWwPjMyMlTZihUE27BHGuRoMBjqPyBFlo1iIUXkI3LMjyyr8pstW7WSoUOHSuvWbaS4KDhS5CKTk5Nkf2ambNm6VYMoEqH91xdAWqwlbt6yWVNZSGkJkrQYeFT36N2nt/To0T38abBgG6Pu7tgQbqzYv3+/vPfee7oWbTAY6j+QTQQYxmop4vXyo4hXKVWJGOw/YIC0cFp+UUlRYHF5nkusxN0wwRML335bAykM5QMrcenSpbJixQo3OEIWdVBWIqDYbiNHst26dTtVazBo4JZlV4dYLUXc7dQxxFLc6hQprMbqcqkYDIaaARueHz92PKY4AmQk8oZNsKNFVKTYt09fR4otdJ81ZyqG/yV+cMG4UA9kH5CXX35ZNm7aVKd2fqguMBhwl37w/vuy0pEia7y4n4MGlmeXjAzpeNpp4U+CBWOJFAheqZrj5zkzVlJTUqUgv0BTedauWavESLUKGy8GQ/0Fpf6O5B6JmRTVUmwSfWW2KkmRQJtevXvpelAiQDBHXn6eCrply5bJF6u/sHqoZYC79J133pH1GzZo8jp9FqTr1APHpfguFT8SBVynuON79uipz93vOjL3nZKULG+/9Za88PwLGoUby2QxGAx1A6wnMs9j2TwCIkQJp0WLKiUrLItLjdQMQuPRyoPUzL0cNCzE5Z9/rutF+/bt81Xjsr4CYU9AyerVq+X111+X/a5fKJEWrcYTLXBBNnaWJ0FVWHKJrAlJugd1LHv26qmeB797pFGkHPLetm2bfPLJJ/Leu+/qerQFaRnqA5CFxT5rddZ3EGtCLEFhfmFMdZ4x7Pzs5VglKeKPZY2pjSNFBBo7eAe9jsNaUUvH5MuXL5eXXn5JI1JxFzZ0sLiMwP/oo4/klVde0WR9XKdBgknI80x1zwAybN+una79JQpYiuzATUHmEPyRIjtqQ4psOrpx4wZ5/PHHddzEsxBvMNQWMIYxECBGQwi5R3Jl546dUpCf7wjLn4cMAwJCxLgLzH3qoV///jJyxAgnwkJ7nCUCkC5Frh988EF59dVXNcKwoZaAy8nJUWH/2GOPyUcffhgq0O3IIGgwCdkdonOXLjJp8mRp3aZN+F8SA9J8evfurakZSsgloaR5v0hLSXWWdIlGLj/15z/Lr3/1K/n888+132JBKBraKtp44NkUFhXq/LPttqIDfaZj2b3GCrxDOQcPaopaQwd9iSGQmZUpu/fs1m2jiEXwA+YzstOPoh81KfZ2mv2QoUPUzZYo0x6hT7USoiyJRsWV2tBSNRBCJOizvorL9IMPPpCdO3dKulMYErGOGBJ+RXJap04yduxYdZMnEgQIUYeUvezYwqdJjLtScBxcyWiRkOGCfyyQV501zZjh782bN6sbnrUIdmJR7dsJHBprE6xb8zmTDiLNzs7WaNb6pIThamLM+CV6vo+bOnP/fu1Ds8B9gv6OUbdi2QiZ5zcP17MwEyWb4wEyhnnn99q4H4Lp6A/mKfcYbam3k6XsxnNSx7LnPo12HkQtZbt17y79nbWY5oRzoqBBFI4YqaqyaPFi+eUvfymLFi3SidlQwGaYK1eulL/+9a/yx//5H01BIEk/0WBLHQJg/CxIx4M+ffrI3LlzJaNrhq4txmKNQIy4k0uLS2Xrlq3qSr3/F7+QX7lx849//EM+++wzJUc8DvQrChcNMsQ9j/LBhPvqq6903faLL76oVwoYrma2FvNLio3d95Pd77784ktZ5cYiAs1QNehnxiRyLNY6nUdzj8rqVatl315/Mo9nhAJYG2MxIDPmnV+Fk7nI0hFVz/zAs9g5L8+EJRs/aWBJ8+fP/0n4faXAtXTcXeRSJ2i4QQ9VTTgujAssLApp6cW6ZVBIAFb0WyYlVoBnNaHFc07NN3GNa6lPwHJhAGDhvPXWW7JgwQL5au1a/SzZTTImml/BFg14NiDVDZqJEyfK+eefrxoV50s0cJVjlUJcO3ZsV8sEy8bvffJ9b/GdDYIRClh81NSlRiwuaAJyFjsl6/3335d3331XGxYlVviHH36oFYLo+7Wuz3Hfq0YapVXOBKSlpCTLoMGD5dzzzvuX58X4Z/xyr3hBSEPyY/Xz+9S0VJk1a5YqE9HWpMXawO2EksUcivZ32qeuFbj5x5wtdBo7AVGMDY4RaX3SVx5per+LBGN779698sYbb8iRw0d8zV36laWakSNHyuTJkwMrPcgYQa4wNohf4Nkx/qqCdz1E4hN8OHHSJK32VRZLPv5YNm7c5KybUFxEtPMp1HUn3e+OSpOmTU5FTTJXvPHijTesKMb5li1bdGy/9tprOr4pgZifX6Byo+yzKA8ci+dH/jCemwEDBvyLt4jvIJcYR4zdaI7rQY/vxsC+/fs0WAYPDXKdY3jLFZHHY6zzHZTZj10/soy2ceNG95siX3IQ71e7Du117Jzn5mR3Z9RFi6hJEbZl7QnBgZZ91Gnb1C+t7CLpEB4mN0/yJA+XCFZ2QWcy0bzfR77S6AA6iHQEBjAWExOTY3rf5Tt+hEttgioKbnAwsHGP0q+kXdAQnigg6a7PIwVQ0GAyJLlngytzypQpMmHChKgncLxAwOFGpe7tXqcVHzt6TC2bWJ4n/cPvuHYmz2E3VpiARKgi9OhbrECS/mmeVcjnEOemTZvUYmScoa8xRqMF45FWG0kR6xgyhPCxlv2QItfH+Dx+/JgqGIwVroOau9kHDqjywDF3uX9j/CITmM9l124aIilyXCpPZR/Idn854R/lnKLPWTfD4qOvIQfOyXPkswOu3+lz+pOxzdjl2S5cuFAJcf269fq8yOeNVmZw/ESSIsjPy1dvTHZWtvY994LChuyjsXzBvTFnGWsQ/aeffqpewqXu9dChw+qh9HNPrIcj16ZOnaqbjBNVHy2iJkXAAEdD2YfA2bpV3XoVTW4ujAeLdtmhY0cZOHiQG0hddcfro07gYwUddx3E771WFnQCE5lBQWI/Gj8aBICkPS3K70OqDWBwMBAIonnxxRfl908+KStXrJQDToglJ1VP0AfPEn/7RRdfrJYiE6M6wf1p/qu7TQQJiJeUGUe44Jm8/psTjq7vPcszGjDOabWRFCE1xhmWMCUCo/2dB+6juKRYDjihhVBjrCJ8sbLff+99FcYLFvxDXnr5ZSUXiGXEiBFfu/eGSIrr169XRWHXrl36d7SkCBq56+D7Bx1poDDS31hMyIaPl3zs+v09edVZhRQ7IeYA8kAmYjTwvFDo/MgN7imRpKgeIKfs8t+RI4dl/Yb1OgcYQ4yJT51M/8z9zX289eabGhvw4ksvqvW72cl8xo/fJQDvOXEv06dPl379+vlKM4t+ZjqgBY4ZM0YjB9EKOXlFUE3HCd2hw4bp2hHt6muukXnXz9Od0G+48UZ115HuwbHyT+Trw4kEHaHWqHuPCY6Wym79kMgTTzyhu6k/99xz6q7AbYD2gaCvbaAvIHYmChOR9a4//vGP8tBDD8mzf/ubkj2ad96J4/pdVRJ8DIJYgeWd7gTNqFGjVKuqbnCfrFOfccYZMm78OGndto26PSobV1WBMaP9F2PzQ4i1HZAIQhsFMhbQl/zHDjasdbG2z9rthvUh65uGm5BgiM2bQoFN8Ty7+gKKX3Tq1CkmBY/RxzhE3tHnmfszZZPr4+XLljvy+Ezlx7q1X8mO7TskKzNLDjsriipPQAmoGuSGL7jLUTmeHPL84RE6mHNQ74vNDbBuKV35qSPGVStXyUanpPD5oYOH1FLGcxPrPWGAQfR+C8/4IkWsPti3R48eujM7FwuhlQfyGVmTUBN22jQ599xz5cILL5TZV1whN99yi3zjG99QzZc0j86dOruBQDShsy7LOR4aLonlNCq6YFY//fTT8sTjj8v/PvWUvPLqq6pN4RbDFYaGhil+0Gm4RC1hldLBaB0VXW+8gNA5B+fClQRB4+rAHYDQQIB42tAzzzwjT/7+SSX2t99+W10huEpZL01NDW7ni4qA4GKAcj4CbNCkElnFpiJwn+x4TzL/zJkzdawkOUuN6zPhGj94vpBiSzdX09PTqlRkywMCOi3VjU03PrESSKFBCJ84fkIb640ILizhE3n/jDVoyGBOYTjEY9Vi8alMcK2ooNARYMhtqvEVrt+REN6/0/y4TKsbXBcKAnI88ppxiarHLDtHPRnIzEJ3r3hsYr0nHd/uJ82bNVODi/QveMsPfJEiN8YJhgweLJMmTpQkd5NYg+UB4dYkLV01m5deeklJClLionlFKOP6vPGmm+T2O+6Q08ePlaYtmuvkqoy4NMncTXIaExT3B5bXr3/zG7nnnnvkrjvvlPvuvVceevBB+dvf/q57D6KJsFiLu1K1j4DB9eIX5xy4BgjgePGFF+XRRx6Vn/7kJ/If7v7udNf13//93/K0I8SVy1dI7pHDp+4Djb46BzTRnqwJo+CgrLC2h/CrKeC6uWL2FTJt6jTp3aePlJwsVfeHIT4glHGPa7EEJxyYq8y7WKHCzWn8HNdrSU54JzVKUhdXTY6h2gSEMWM6qP6gz9mDlEjrNCdT6fdo3L11AXAKhkDT9CbKB9xrPLIQucHGBqNHj5ahTtlm/NNffuCrZ7lYToAwxcfPml5Fk4wBgWaAdrPYWXZPOYuOIBL+hkSwEHCdoVX17t1Lzj3vXL0J/NkllSR0e8el0XdoTTmO7NhhAx80tVOXfrpUffFEZD33/HPqbiXvLxEl0iKBe/Rvf/ubunRfeTWUM/fJkk+0iPeG9etlB0FDTuM7dvyY3p93H37WHIIA/YBiwu4nkyZN8pXYmgigaHXt1lWmTZ8msy6YJX379nWDuekpJaouACKPh3ASAcY6rtMRI0eqNa4BbnH2J8fUNaJw8xzO+rm+MyDDIEU8HzqOiwNYEnBGBgSiy0mu3+tLV+u9uXvi3njl73hw0o1xyHXc+PG6dAdf+T1mTOoG2vxZEyZoRA9CvbwHzoWwgI0PmXyn3/z61/LnP/9ZXZxYg5Aha1lEWSL8CJsl2KNPn75KmlQrqQreOdCgWjiCpmGhHj2aK1s2bXFW4mIlqAUvv+zIcrWun/nVGqIB14FgJ5KKdAoaYf/4xw8ezNH+0R3t3fVh1uM2YBDUBLgWNCmsU9ymaFRoU7UBRL9eNfcqmTRxku7WwcTner1WW6HXV0K5vNp3jYwzgl8IVsGdiuCpzX1ZH4Cx0DWjq4wZPUbat++gy0jV3efenKmJZ11T5+Z8yHc8X+MdKWK8xYKYSBEmZg1qxowZMmDgQMmF2Cpwd7GRMOYx64EQImXL3nzzTQ27hUwgR0qMMWFx5V0x5wpJb9qkUhdqZeCYdExaeqqkuPOiKc+eM0fXMiGkRJAR54RkCEK69wc/0CR4AmUgbK6Fc/Kd2gDcx+yNedlll8kwp0mh1CAoawsyumTIDd+4Qa6//nqZ7sYXW76cyM+TvIL8WmeJAVXgSkukWfNmzuJGKas9zxrwbFFeCTgg7aZtu7Y1IqQbGrpkdFFZNnDQwPAn1QeeLdst6bxx87265w3BcpybVl3LIMxDlgcGDhwkl19+eUxriR5ikoZMfFwEuN4GDxosbALJRZU30RAQfB/he9hZUlTIgBQJOiEIppnTqggGgFQgW46LZtu+Q3udvH7dPZzPE0otmrfQzjnzzDP1mCnu+IkiAMiPBNELLrhAXVXcB+HVkddTk+DZeIpGB9ffKCC4r2sTIYLmjlgga0KpL7roIjnHXSdrYjrAXTfiVcAdFavSFBfcUFQSdEJGr8O1lq1aafnD6TOmy2inFNW2/mTs0Xe4pC+55BIlx6bNmmo+XI30YQMBSxJY52eddZa+oqATjFeRnIwXHJPjMyY5B4GQzPOOp3WUJKecVwcxcl7mJvdOygrztnWb1qfmCmMuEeDeGjvjiyWYM848Q84++2yN/oVzYkHMMxiXG6H0EEBqcsiFWtEkY2JCjFiD0AMRmBAja3AIEXJION7KVas05QJhONBN3mPHQykKfsG1FBQU6rol10huF+dINDkxGPr26yeDnPUMQXIdtcW68a4Fy5n1DtaEiSKurRjo+vDKK6+UHzjL+6qrrlJ3FG5f1UDz/O/DGAS0D4tLNOLS04S79+iu13n797+v1ndtUIDKA7uSzJs3TwPkMrp0UQ3egpkSBwQyMgfl85prrlHlHyWf8YNyFTSQvXhTGJOsbyN/hg8frktUGBycO9FgTjI3u3XvpvJlzpw5apR4c6XIGU+JAEQMt0ycMFHOOeccVUT85CWWha/k/Ugw+Wl0BGt1pB9QSaQqdtbfuVfqTxI5igaLVgE5UmUE6xHLjr9x9ZFWwQP1sxbIAMGUZmcP1irRjrHcqgskO5N8u279er0WP9eeKCAAGbAznBZ1ycUXa1AT5d1qK7zxBYnjqh82fJi75qGqATLmGBusTaMd0/gM0vJ+FwR0lwjXvHPgtSAKcMTwEZpexPonChwVM1A0KooiVmERTt7HQ0LAS0lJ6JhRNfd7js25mC+xjieurZWbB8w3lFA2ec7OztJzME4bnQz1nZ/+49qwAHAd4yok/Sry91gIXvI+AXF892v3VkUjRQvBHnTyPvJKc/7Wr9PAM4oUlHf+yMZ2ZfRTs6bN3Dg8Ta+pqkopyEPy5Rgf/Hb7tu16nGInyDkmUaSxeBeIvOf33vjEUmKeQAgoZ5deeqnKPfqLlK8DORX3PX3MmOD7rMOVlZXMK5L36S/uocK+on/cdzkGS0lYbMQt9OrZU/WAfEfaxHvwXZQDahbreCNwKEpo2p4bc2p9hvvw9LFj1QvCnMRIizdwMGZSBDxMGLpN2zZaVYEE9CJHYJVNLO/fIFB+g2sBiwUXDzk4HA9XJ2tyHOuII0kS8hGCXiADGxNXBM8ighTRlBgchEgzoaoLVBIhRUMFoBtEsZrxQQFCZHKgPbG2ymCt6TSMaMD1QYoIHqx9iodj/TNGuJdWLVvqa1PWihsn6TihvxkDvMbVHHER/o77p4uzrDKcUOMa8AJMnjJVzjn3HJk+bbpOQtbF1QtSwZj3jknJQlKTuIe2rvEaTeP4RDJidXgKZKxAcLKGTzAIYwLrm/4jTxhB/bU+iKIlu7HdsmULFX6jRo+WcePGfa0f+A6KLiXJuG6eF9uTRdMgk44dOmphBxRlxgIep3iBQEVJobQfJcc4T3nn/5fmyILv4h0Y0H+Auur4uzIwLvidPjdHgAWOGPg7zX0eGqd4H0Jk66cRjUp91I4dT1O3IUQ0etRomeaUEuY3pEQlMeDtdFLufYbvCUJE7mLZlUcqVNchpY2cVxSrivrMC3KhsesOFitzRzd6cDKeXXFw7ZKHSTClyuuwKz+axvdh2Hbt27n77qbjjnmB8YPyxPnjRSOnNcVlzENADPonn3xSUyDQJphwbHVUGVgAhri++c1vKssTeQrrM2AZ+CS8Uy4J4qTkz+JFi7VjmRgkIleE0DGwik5oBZ2f//znWtGA31UXKCGFexjXH8RO5GlNgUFEWT0UA/r4unnzVMDQxxUJ8doKb3ygdFAgAYIhDYcxwqRd/OGHOhaDAAIcwhs+bLgMHzFc3Y9McEiFyU1CO+tE0RAUz4DGNZKe4zdfkPNBjggZLOV4wblRIOhDikuQW7vk4yWyzFmyOYcO+srl7eLG1WDXTxfMnKkR6awHR44r7hsFkdxdLEaKW0QL+paayaPHjNaxy3GDGLOMI6xFdmCgdFm04F7oO6w+1uO512jcdPwOgc45IWEKeVCzlEpWjAmtuesD9ADCv1/ffnLmhNCaJaTI2NCx6WQdCo962g4e1L5HASgP3j1xP5AK91ZeNDpjhEBJiJF7KW/c8znHmuIsaNIhIE6eF/3tXQtjgOPAE58vW6YlQ6n2FS0oIEG2wXnnn6deCZbHmJMQOcZHEOMjblIECCkGF0n6jz36mF40EaeVCQw6CtdLTydsqGxz991368P0Biy5hdRsxB1AhyL4Nm3cKNu2bZc9e3aHj/KvwKro2rWbWhX4l2fPnq2dFYSGGS0QzNSFvO2223T9qaZI0ZuM9DOa23e/+10drBBkXQfkiAueiUYlDPI/d+7apZ8xHhH6vPI93nt/lwVjlAAvPAlo9bznFeHCZMNSIViBCc7EQ2BEQ4Tl4bC7ToQKz4NnEy0QcFwfxBikx8OzmKgmQhUoymvlHs3VPqS/+HeaR5LcN3PUayi/rR0ptA9b8ljUZV1vgN+jwECIHC9aIOCYt8zpIJQBDx4RcE14p/yA+cR9q6Xk7pXx4gfIN8YA1hsKCdfA+KXP6Sf6Pd/JP8YI5wI8f/qbZ8+4pKHod0TWOWsJTwIkWXZsco+MeZ5vZcTDebgXAh45BucrC2oyo9ywBEP/lUc+fE6jmg/XU5akuDfuE9c197/PESQVyhgXyHyaN+Yi4c1P7/7JZGC89ejZU89F3wQp3wMhRTqCBwoR3P/zX6jmk+cstaqYm9/luodF6P3DDz+sk56bo3OoDcq2Pt/5zndUe/GIhl0O8JEDFfhukDEQeJC8dnPf9Vw5uE8J2Khu0BfvvvOO/J/vfU9OuEHgp8J7kNCJ5Vr3Hj3U337nXXfpAKqJa6kuIATo/0ghg+CnMa7KgjHDZEPQIWggRARDvOsSdRHePKafPGL0+pJ/Y47RN/QXrwjSml4aqOtAhjE2sSCRFbyHwEhr8EjRIwXGp9cYp+WRV10DBMh4Q7575TgZd4w3DxAh85HmKQWJRCCkCHiAaCRYjI89+qia2+QFRmouZeGR4khntt9+++2aSO4tSKNN4N5B+2SgEKn6ibMcIU0qdPAdrzPpJIQargwIGe0Ptw6lrfCRVzcgasrLUXIuKytT75N+qG4ywk3HwvdtjpwJ0sBKrOx51AfQ14wNr5X9uzzQJ4wrXr0WpOZZlxDZV5F9x3vGL/3ivXrvDfGB/kVmeH2NhUd/e6CPvTEZ2e/1oe+9McY9e/fPZ5H3H3nv3vxMJOIKtIkEDwiNBmuPIBpYH3LiJrmZisCt8x1cChAiQTd8H5LDBEdDYsBwPNwNLObiUuU8aFSUUuM7BCIQmQcpbtywUbVYvkOrbvBAd+3epVVtjh87rvfHg6yuQQwRErHbySkGVInBSiRnCO2yPkykysD9eZMITZqGNcPY9Nx+ZRv/xnf4rjfxGirK9p/Xd17z+rQ6x3N9B/0Y2d8VjVFvfPL9+tL3VY03mjc3q2vMBTr7ISfWq0i8nuYakUYe6ZUHbpA9GXMO5MgrCxZo4W4sREiQf6MjvFdM55YtW+krgwQBj5Wom2uuX6/vAVYlm3v6WbuoT/A0LwYQEWXkSFFhByu6OgaUwWAw1GUEZilGAiuPXJ6C/Hz1lWO9eUxfFiFB7bSFRqG8xOMnjmskFC5R7/v8FsIleAaLEGJEg8AaJPKKyDR+w3lZLCZqkL95j5ZR3YCYcPeyBoqFS5Ha6tJysBA5z+QpU7S6DjtPQ4hoYgaDwWCoHAkhRay4Jk3SNR/luLPcSGRn/Y+gj7LCGQEOV5B7iKuRdUT8y+ThQHKQGr/hFTL0IqxonmVKlKD3OWSKy5S/a4IQQU2QItYhhAgBElzEGiKpF6QRGCEaDAZDdEgIKQJIiShQCA5rcfuOHRoZ6LlEI8HfCG5cn4Qor165UuuUssYIwXpCPUSg//wtROORZiQiF2kTSUQVobpJkfNRlYLAGqxkLETWEQlbNhgMBkP0SBgpesC6w415NDdXA2NyDh7UPcEgibKANPi8tDSUQ0TZN/Kn+B2few1irQhebg4Ey3vcrNWN6iZFQpi5T5K7ZzkynHn++Zq7VFOWssFgMNRVBJaSURmIQn3HEcTCd97RhPxjjuQgDirUlAWf4wokT6exswCJKKVaA2uERKPSSJzVqCSsTkc2aik5Aix2v8nNPaokSl1HfkekanWDa6Faxt133S379+1zfxerNRs0KdJPlHDDzdzH9RPWIfUYyc80GAwGg39UCyl6pEVRWXamZ/NfokXZdLcysAN/YUFhqPCrsx4hlXZt22mwDfvCkQeJ1cixcR1Chru279TKHMUnS+Smb90kv/71r8NHqz5UFymyhkieJ1t4XThrlsy58kqt/oFVajAYDAb/SLj7FHhuUdYZdZ8rZ+Xh8qMOHp/jTi0PyiHuf0nJSZLiSEUtS/cZRXU1qjUzS/bu2SuZ+zMlOytbDmQfUGLEXcluBuxewEbI1Y1Euk89SxolAIsZy5CgmilTp4b61lymBoPBEDOq1aSgTh3pEwSCYN1Q95ScQwp4I+gR+JGARNi9njJpBNzQ2D0D9ysESDFZSJE6eplZmXLo8CHNT6RQM1YkxYTrE6ioTw4nrmUq4FMJ6OKLL9a0C3IS6R+DwWAwxI5q97ORRsE6H0nlt9x8s1ZdITexsDC63dQhSlyRIbJMkfQm6Y5YU7UIAC0pqX66DlEYIEQ2TybNhe1SbrnlFlUwavNmwQaDwVCXUO0MghuRXEIEOQnmN9xwg1o7zVs0l6KSEt1SijJllQFi9Br5jZF/0+obsAzpFyJ5x59xhtxxxx2nNtQkL9FcpgaDwRAMasys8pLM2dqJABGKgeNexQWIxUiwSll3akOCt3bIThcEE1HzdcjQITLzgpm6cwjWNmkXFlRjMBgMwaFGJSpWHeTI+uJ//fzn8u1vf1vOdMIeIsAyYq2xoRKjRt4WFmmgTrfu3WXu3Lly2+23yxVXXKEVe1iLNRgMBkOwqHEzA9cfNUzJQ5wyZYpajvPmzZPTTx8rzZo3V9chqQflBeLUN3jrhigEkB6BSJdedpkS4syZMzX/kAhTcjTNQjQYDIbgUaskK8n2pBewYz2vlClr0bKlEgDuVIjRDznWFQr1XKWUagPJTlGg+PnEiRPk1ltvleuvv17rmJKCYTAYDIbEodaZG1hBlIW76OKL5L7592lQCbl4EMeJvDxt0aw3hv619tMi9+Il4fOeAKSbb75Z7rzzTvmWe0VRSPRO0waDwWAIoVqS9/2AdUYCS1hrxFUIQfK+tWvtO3SQlJRUOUEKR1GRljjDwmrEf41DUaceWeKWHT58hEyZOkX/rk5wDTt27JC333wznLz/z533ec9aKY21U5QAdvkYPGSI1i4lIvfsGTNk+IgRusNFZEF0g8FgMCQW1VLmLQhQAWflihWy8O2F8sILL0hWdpYjxzxJbpwkqWnszhyqowpJgubNW8i1110n8384X/+uTnANixYtkju+/33JzspSIvSKmJ8sPSl5x/OkqKTYqSSNdCeQ8ePGyeWzZ8sIR4T8bTAYDIaaQZ0hRYjm0KFDWkt01+7dWt9067atsn7dOlm/foPs3btHvwcBEaAzedJkRzSXy5w5c/Tz6gTX8OWXX8qjjzwiS5culW3btp3Kn0xzlt+gAQNl4KBBMmDgALUGu3XrpmSIRWyuUoPBYKg51BlSLAt23ti+fbusWbNGCQjiYed+QDQrNU/Hjx8vw4YN08+qG/v27tOi4Es+WeJIe72SOq5SiG/UyJEyZOhQzdOkgDc1YQ0Gg8FQ86izpAjJ0AhOgQwpBM4ejACS6dKli26pVFPrcVwb6RUUPYfAeU/0KOuHrBOy5untnOFZkQaDwWCoWdRZUowEBEQhcDYWBqzf4YasDQEqXBProVwjuYfUfvWCbgwGg8FQu1AvSNFgMBgMhiBgZVEMBoPBYAjDSNFgMBgMhjCMFA0Gg8FgCMNI0WAwGAyGMIwUDQaDwWAIw0jRYDAYDIYwjBQNBoPBYAjDSNFgMBgMhjCMFA0Gg8FgCMNI0WAwGAyGMIwUDQaDwWAIw0jRYDAYDIYwjBQNBoPBYAjDSNFgMBgMhjCMFA0Gg8FgCMNI0WAwGAyGMIwUDQaDwWAIw0jRYDAYDIYwjBQNBoPBYFCI/H85igMq5hheXQAAAABJRU5ErkJggg==;" vertex="1" parent="1">
          <mxGeometry x="803.44" y="175" width="134.82" height="50" as="geometry" />
        </mxCell>
        <mxCell id="79dWbAI17CPbcTGJxEno-15" value="" style="shape=image;verticalLabelPosition=bottom;labelBackgroundColor=default;verticalAlign=top;aspect=fixed;imageAspect=0;image=data:image/png,iVBORw0KGgoAAAANSUhEUgAAATMAAAEHCAYAAADCs6HlAAAAAXNSR0IArs4c6QAAAARnQU1BAACxjwv8YQUAAAAJcEhZcwAAEnQAABJ0Ad5mH3gAAFuaSURBVHhe7b0HdFzHmSb6A53QCY0MEmDOScwilWUFS7KSZVseh/F6PWHPBo/3vPPO7pw3M96zs++NPTO7b3bee949Y3s99trjsJZtyZYlWZlKDGJOYAQjEpGBRuduAO/7qvtSTRCRBEng4v+k4u1u3L5dt+qvr76/6q+6BfF4fFAUCoVimqMwd1QoFIppDSUzhUJhCyiZKRQKW0DJTKFQ2AJKZgqFwhZQMlMoFLaAkplCobAFlMwUCoUtoGSmUChsASUzxWVk+gclnh6QFI79A7owRDG9oGSmuIz2SEaONcelsTslfYn+3KcKxfSArs1UXMbptoQcbkxIU09aqoqdsmWBV6qCLgl4HLkzFIqpC1VmistIZQalpTctP9jVJd/b0Sk7z0alNZyWNNxOhWKqQ8lMcTWcBXKiIy3f2dEt//hBp7xZF5YEiE4pTTGVoWSmuBIFSIUF0pnol33NCXnjdFReOhaWV4+H5VRbUqLJAdG5AcVUhJKZYng4CmTAXSjHezPyXF2f/OmLLfLy0bC0w+3krKdCMdWgZKYYGVBp/UicImpPDMjzcDe/BbfzDai0i13J3EkKxdSAkplidJDQcEjAt9zXlJAXoM5eAqntOBuT+vakRNTtVEwRKJkpxkZuHI0TA+0grxfqIvKdnV1m1vNcV0qSmYHseQrFLYSSmWL8AJ9lcOgFeZ0Cib15Jir/HaT267o+E9KRSCupKW4dlMwUEwNVGhRaV2pQDrcm5Yf7e+R/HeyRvRdi0tCdgtupKwcUtwZKZoprA0nNgX/w/56LcfnGG23y3J4eOXwxpmNoilsCJTPFtYFkxgR0J/rlWEdKXq+PyAtHwvLCoV453Z6UJANtldgUNwlKZorrBxRaGml3c1J+ejAs/987bWa2sz2aMZMDqtQUNwNKZorJAVWas0AikGKnejPyD7u75G+3tcvu81Fp70tnz1EobiCUzBSTB1hTCiqsJzUghy4l5PVTcDuP9sm79VE52Zowe6UpFDcKSmaKyQUVGmPSkBqg0L67s1u+v7NT3jgWlnBMZzoVNw5KZoobhkFw2oBT5ERXWp6v65O/g9v58tFe6QGp6bZCismGkpniMgpAPhRWkwZezFEgrfF+2d+SkBdBaEzv1EfkbGdSwrqbrWISoWSmuAySmQMWMamERoDQUrh4E0jt+WN98h9ebZXfgdQugNAUismCktkMB529aGpAjrfEZfe5uAmA7WEU/yQzGl1OLoWKZAaksS8jv6kLy0/29MhvD/ZIU08qe5JCcR3QZwDMQHB7bK6jjIHEwkitIJfDDXHZezEm+5vi0hTrlyjHtDiQfyNAi8PvLih2yh21RfLU+hLZtMAnVQGnuKHiHDfqdxW2hpLZDEQzlNDp1oQcuhCXDxsTJno/BsUUIcGB6KiTbngQBazOA84KgLxqS1xy3yK//NHWUqkNuSRYpA9QUUwcSmY2B59/yWVFbX1pOd+VlhOdabkEMmvqTpsxq3ocWyJwAKmGKIis480ALQ/5K8JvLipzyYOLA3L3Qp+sqykCwbnF7bxZGVHYAUpmNgQJjFuMpai2kgPSEe+XY00Jee9sVH5zMiIRuJFmDzKSxc0kr5HA9U6UgiDdT60ulmfWBOWuxX4p9zulyFVoJiYUirGgZGZDdEJpcTueusa4HGhJysG2pHmobxdIrQ1ERh4zbiRJYioQhWWBg4MyCy7m0lKX3DvfJ/cvC8imhX4pAunqOJpiLCiZTXNQ1GTwDwmMrmRTmESWkQtdcCFbk3KiKyWne9JZwrDIa9IDyiYRUGdBR4Esg9u5ZYFP7oTruR5u5+xiPoxYJ98VI0PJbJqCW+sM4p9k/6AJrdh3Pmp2qngbruS5rrR0cumQcSNx8nRTNbRI3JcfpMaxtD+5p1zuXeSX+eWeKc3DilsLJbNpiF64i5d603KiOSHHoL6OdqSkA8qsI5aRS9GMRNNZkrtMYtOx9SP7Thz8IORl5W65G27nw0v9srbWK5VQaQrFUCiZTXFQgdGNNGNeUFttIK2m3oxcBIHVNcekri0pdR1p8wQlQ1pUYnaRL7RM+tEg5pUVbrlvoV/uWxKQ22qLZH6ZW5wgax1KU1hQMpviIJHxKeJ1zXHZdS4qr5+OSn1nSsLxAcmgIaeRMlYN2rVh4/6cSD68XDvbI4+tCMpX7iwz8WgMslUoCCWzKQhG5reG03ISLuTp9pSc605BjaWlpS8j53HsBbkxit9WKmwsDOB2IVPLvQ6ZX+qSNXA3H1vil81zvVINt5MqTTGzoWR2i8HCz8CN4vIiKrAeuJOXQFpnQWJ7csuL6k2EPs6kCmGaye2WbmcOn78tJE9Cpa2H21kVdOrKgRkOJbNbDLbN3nhGzrUn5UhDXN67EJM6EFl3tN8syo6D6MBxHy0vUgFyGSXOQllR5jIK7eOrgrJxvj/3F8VMhJLZTQYLmxsTMi7sYldKznamjRvJINcmJMaEXYowQn/Q7DQxJSL0pypQjiF3ltC2gsi4FOr2+T4pzy1YtwMse+FqjlRqUKI40qWmEtVA4iuhZHYTQPVFg0zClYynB6ULruSZtoTsOR+X7eejchxuJKPzDWmxEaqRjh+UrP0DUgsC2zi7SP7Z1lITvjGdduDgjPUA/sFt5Jai4TXMgccUEnc2icA+IrGM9CQGpNjrkLsW+c1SL8VHUDK7CeCOqowLO94Yl91NCfMk8I5oRrphmNw7jONh5lkfbHfKYxMHLJiLA4Jo3Fwp8MjSgHxmTUAWVRZJCA1/qiOB+o/CDrpBVlTs7X1Ze+HY6SW8v4BjN8isPzkoLtzoVqjPP3+oUkp9OkaYDyWzGwD2tF0gq0tcXtSdlos9WZfyfEd2edFZuJIJKDQTGzaTZiRvJGjFLHj8v666SB6Ay8lGv6amSJZUerLn3CKkoMo5wZOAworiGEEnFkUH14tjB1zHCF5H4gMmlpAdH4mL9tPJY6xfWvFZjI+9AumV+R3y8RVB+bunZpmF+IqPoGQ2Cci1IeMiWFvu1LXE4UbGZNupiBy5lJRm9LDGfeQSI5uM50xZoKPwokIeXOSTJ9eG5LObSozLybEm9huTCdN4cvXP5WWo/stuo3mNz0lQJKd2KKyW3owZG21Gp1aPdAgdXRi2QaK7nDl2cLQVK6+Wq4wLzoYae3RZUL7xRDWITcksH0pmk4AIXAQuJ+LyooMtSdl/KSG90WwP2wbXIZzMzkpm3cg8I1XcGIAXHCCTShOT5pals4rk2TVB2TLXKyGfc9KGJElaXDYWR/1TXXWCsMyyMtT9pXDGdGAtkX6osAFJQZHx3ATP5yw1FRpIN8whBiR2ggZW3vJZly/5ZyWzUaFkdg1ggYWNC5CRNhgtd6qgG8kH3R5sTcpBKDFzEsFhDSWwWwMQhwvM5XMXymdWF8tDS/xm48eJxKTRRWSAcpoExAQFFYfLxw6qG4mL/Ok2xmAPHAfthE20g8RakTgrzY0vqdTNRAVtwFJc+a/HAyWzMaFkNkEYm0I61px1I9882SdHQV4Xe9IyAONk6tdJpqkDVFgBSIDLodZCof3h5hK5B6S2rLood8Lo4KB8dwwqG6TU3JuWRriILd1pqeuAi9iZlj6QGFXXIIyCoTS0j0F0XoP8D+8HJqsjM4anZDYalMzGAS4v6kGve6Y9KSdhwEdgyG0w7DYQWGNf2oRV0GWYcG+ruLEwzIJ/eITCKjMxaW7ZOM8nWxb55N7FfqPaqLxIWmZoAPVM17Adr7lDby/cxz4osCRsgHZgnpOAYxc+60TidwfoIvI3rHq3XEQeJssWeH0ls1GhZDYExmZgNHQfOLvUHR+AK5mWJhDX0RaOiSVkF1zJFAzZSDR6K0pgtw751pv/GvXBuRY+X4DbCHG3Wj5AxdUvsgwKbfMCnzy8MmDcxgtd6exYVx9TWs6jrps4WA9FRuIybiKvzTq26vpm17kxTCWz0aBkNgTowM3gbH1rQvZfjMn2C3E50ZaU5nBGkjAmclgcvT07fIObadCKK2EpossJ/7CDAdEUop373Q6ZF3DIypBT5pS7ZVaxyxDA/HKXlOLYCzX264NheeFAr2RcBSZUhgPxaRz5jE9rqOtyXVu4FXXOPCiZjQolszxwAP9Ic0JOtKfkQm550Xm4kx1RqDQQnDFiuhA6JnZzQMu03MR8KzX1IFICF7HcUyiVAaeEPA4JFRVKidchXrwuwufFRQ4pw2fV/BwkEPAWis+c5zCXPd2WkB/s6pYf7+uBZMMFrZAZc338k3s7JcD7VzIbFUpmAJcaMYjxpaNh+fWhXtnelDC7VxjQwGnUdCsUNwb5Fmi9RnGDq4ybSJ7hrKQzFyvmhMvoQKoFcc0rdsqiMrfMhvqqDjpxzKquAAiL42GuEWL6OIRw4lJCvvdht/xoL8iMPzaVOyklszGhZAa0Qn3tPB2R50Fmb52LSRjkRjfjMpTHJh90ES3Ql+N7fmR9DAabC3JaWuKS+SCqWSApbpfNBlzqdxjCKgJRcSzMi8SgWCaXs9CQngPE5IC6ssbih0LJzH6Y8WTWFcnIgcaY/Gx3t+yCIjsTBo2xN1cCuz7kE5M16JQ7UOQWgzxK6ApCXQVARnzyUnGR06gpL4jM6SqUKpDWbDTYKn8hGq5Din2MDyvEufgOlBer6FqrScnMfpixZMabZhs70BCVV45F5NsfdEoXR3zp0ygmhjwLsoaayAsOfM4jyYuvC5jwxgPymge1tQCqa0GZy7iHtaVumYfXVF+l3iyp8Xs3Ckpm9sOMJTNOt9Ogv7W9U35dF5bz3WlJmZmw7N8Vo2Coi2gaGt8MmjEqH1TWLCipKjS8KjS46gCPcBGL6SI6JeSF+oI76EfH4QWJkNy4nY0PyY3PeA1u3XMjuxUlM/thxpIZN0PceS4m39vbLe9fiGXlgyILyyLMEf/wyITGzgF4PxNIh4nE5XM6DBH5cu+DcB1JZJUgtAocmbjDQykUGLfkmQrbWyuZ2Q8zlsy2neqTv/pdq5xi6AWDx5TMPgKVl6W46IvzNT+DgvKDrBaApOYFnDKvxCnzKz1SW+aRWXAb6SqStPwgK/LCFdyA4p1KJaxkZj/MODJjGMbOMxH53YmI/PRAj9m1IMESmElcxvu1SCq/9iGYOBM4C2RUjUZD95ANpgyvy/CZnwPwUFZlngIJovH73SA3fo7XXigzE98FwuM1pnpxKpnZDzOKzLg0pT2Slh/t7JbXT0dkf1tSBtjq7KTK8mvTvM77IDc6H6TCQgqAgDwgHrez0JCQi6QE5TUHDaYGDaUGaqsSrmEVSK0CSizI2cYinntjB+dvBpTM7IcZRWbnOpOy+1xUvrujW/Y1JySJBmwrRcaapOKyapRrs8xnSLxPEBddxdWlLrPgelmFW2aVuMwyn2oQFwfnGTXvAumBr8wgPL9SmDuSCwvxD4/THUpm9sOMIDOut4skB8x2PT/c1S2HoMja4v3ZlcjTDYac8I9Va8ZVzL6hyiqFG8gBd+Ma4rU14M6xLrqBHriGlXhf4S2UCj8/Z8xWoQTccBHRoDmzaAOuGhNKZvbDjCAz7oBxtDkuP9vfK9/Z0QXDRXOl1JhqGK4mzGeDRhExqt0DleRC1t04kni4zMeFMzhOxcDTGriFc0MumYNUC9VVFXRIOT4rMQGn2fEthZKZHWF7MuPNNfWm5ZtvtMm2+oic752iEf7MaE5hWYabPWbfMyo+CEOewwDTgFNmFztkrplFdEGFQWWZMS3H5WU9VjLrGZnoKiLhfwWgZGY/2J7M6tsSsuNsTP7hwy453p6SJAnjVrVolrQpbfxjvWZygKxAOCFXoZTA5SuGwqLKCsIFzKZC4w4WwzUsBWGV4cgdIkhgIRi3Wd6Dc/Q5iuOHkpn9YFsys56S9NKhXvn5ni75EETGnUFvins5pEQ5YM4wUSYO03EBNPmUS3z4WQEaUjkIah6Mc34xlFfIKdWlbjObOKskuw8X1yJyxlExOVAysx9sS2bc/njvhag8f7hPXj7eJ70wBD568Ia6l/iNrNEhWaWK32NkfAiNpRqENRtuYjXIqRKkxaU+ZT6n+PA5XcRSo664E0SheHJHNwjMA8VFN1FdxMmDkpn9YEsy48zlqdaE/GRvt7x7LiZ1UGVGEl0PGbCUrJKyxrYIMAzDGLgdDfeYD9ElxJHLexhIyk0CzaaBcAUrc65huR+uYgDkBSKj2+jB+SQsDugrbg6UzOwHW5IZ48neOR2Vb77eJo2x/uveCYO7PZDAzK4PuUTjMvFWICDu8FDhdci6UqcsrXDLvEqPcQ05OF/BxdVepwmNmMptZaZBycx+sBWZcZwskRmUH+zplp8f7JVjbUmJZeDzjdc/o3touYpWqcDAqbZoRFzeUwED4vrDcqoqKCwvlBX32OLynlJ3NjyCS3yMKgPRuXGkq2iepp27pOLWQ8nMfrAVmfEJO3yC0n/f2SUvnewbP4kRKIUyEFEFiQkuIbeoIQmRjDh7WAPimsXxLiS6iVl30Wn2lGewqQ7OTy8omdkPtiKzvRdi8ndvtcm+1qQ0gNjGTWY5Q7mzpkjune+VVTVeE3DKYNMyuIgclLdmILPpo9f0Nelu8qVi+kDJzH6YytU3bnA8/lBDTLadishhEBkfypsd0BoneAG4pwvL3XLvEr9smueVFdVFMjfkNkt++DQfuo8cG2Msl3EbHSA0sBkJTYlMobj1mPZkxidK98QysuNsVN6tj0hjX0aiXGA9EYbJ9XoMleBj++eWgsTgRpLAGDWvUCimPqY9mfGx+oca4/J2fVR2NyUkfdn/mzhMxEV+jJhCoZg2mPZk1tSTltdO9El9V0r6oNIGr1dIKZEpFNMS057MWsIZeQ+qrJXxZFwbpFAoZiRsMQGgUCgUSmYKhcIWUDJTKBS2gJKZQqGwBZTMFAqFLaBkplAobAElM4VCYQsomSkUCltAyUyhUNgCSmYKhcIWUDJTKBS2gJKZQqGwBZTMFAqFLaBkplAobAElM4VCYQsomSkUCltAyUyhUNgCSmYKhcIWUDJTKBS2gJKZQqGwBZTMFAqFLaBkplAobAElM4VCYQsomSkUCltAyUyhUNgCSmYKhcIWUDJTKBS2gJKZQqGwBZTMFAqFLaBkplAobAElM4VCYQsomSkUCltAyUyhUNgCSmYKhcIWUDJTKBS2gJKZQqGwBZTMFAqFLaBkplAobAElM4VCYQsomSkUCltAyUyhUNgCSmYKhcIWUDJTKBS2gJKZQqGwBZTMFAqFLaBkplAobAElM4VCYQsomSkUCltAyUyhUNgC057MBpH68c8gXygUihmLaU9mqYFB6UwPSIqM1o8P8P5yUigUMwbTnsxKfQ5ZX+OVDbOLZG2VW5YUO2W21yElrkLx4e6c5DRDdLlkiA6fMfFvFgoKci8UCsV0xLQns2UVbvmjzSH50vqQPLM8IPeD1G4rcclckFzIWSgenpQBa6XzEt9b6g3/i8VjymcKxbRFQTweZ3OetoilBqQn3i8JuJqx5IDEk/0SBWEx9eGzCP4eTw3i8wEJ47yeREZ6ceyO9Us7Ugde98b5vQH52j3l8m/uKpNqkKEHyk5hX/Ql+uXEpYR878Nu+dHeHhE36nsqVzlbKTrf2eikH10WlG88US1lfmf2bwqDaU9mI4EeJQkujRdJHKMgtTDIqzOakR6SWKRfWvsy0goy68D7CI6PQtk9sMQvTmeBFIHMvEhuR4E4c8mNzx2FBSrgbAAlM/vBtmRGcIaTNzeIFzlbkAH8Y45I/bnXnDyIgvC6+tLS3JOWky1J8cK455a6pDwAdxUGFChy4LVTAh7H9PfNFUpmNoStyWy8IKFRwdHAL3Yl5fW6PjndnpIuKDYvSMzjgiqDMvPB4F10P6HQqr0Ok0q9hRJCCuI8v6cQyWHOM+fiO4qpCSUz+0HJbAg6Ixn53dGwvFwXlrdPRSUGA8rk/mZAfoLhLwg6ZSFSTbFTKqDYyn1OKfU7pATHIMitBERHN7UADcQH8vPQTYWLSnfVwdc84n0h/u4ogOuqvHdToWRmPyiZDUEGCo0TBC8eCcuPdnfJia609KQGPjJ0sg7+9zCBjFwkKLx25o4kKJKVA+e7QWZ0S5cXO2QBSK8SqTzoghE6pApEWEzCc2eVnKq4mwslM/tByWwEHIOhv1sflZ8f7JW69qREOKOQzzcsNWvZgXmdfZkPEhxd1FlQahVwQ4vphuIYKIJrChLzoAF58Fkxjn6kAMivGCwZwjkcp+O4nXFZ8bkLTMnrkfRwUFwnlMzsByWzEcBC4ZjZf36rTV49GZFTXSkYO1hkIkSSM8BhXzPhWoUguwCIqhSkVgmlVlvskjmMk0MqhbEyKLgMbizH40h+JD66q8wKyY0K0LirvJZ5n3VZJ5LNmQglM/tByWwUJDODcqgpLr+Ey/mtXV0wqFxRkTnGi/zSNa9zH/DAy4B5nGhE4DRx4zXH1opAbkzGhUUyISE4ye0ukFqotlIoO7qvc+G2zgqA7GDgARh2MY6lPqcUoWEaBWd+SDEclMzsByWzUUAhFU32y/vnY/KjfT2yryEujb1pM5s56WAtWLEkhHmffWmAhsb4t3K4nEEwnw9KbRYMuxxqLsSxN5AbZ1I5DkcVF0AKwtbppnIi4rLLiuTBdRgUTPd1pk48KJnZD0pm40BvLCONcDP/8rV2efV0RDIks1tFAmRYq8Z4zBn5R58NmvE3uqcL4J7OAqNVU8ExhVxSjcQJiHI0hKqg6wq3NN89LcCbj17nXtgISmb2g5LZOJCGu8llU68c7zMhG68c65M4G/iNUGhjYWhtmff4x/ocR7NaAQl2L16uT4WS81KN4TXfs916HNkxuCIouBJvoSxkWAlUHYODS/34DF8u9sJ1xXuj7pDsxGlKZvaDktkEcL4zKe+djsr3dnTKmXBGurhofSo3ACo2C9wlhMg1CgNIriJ3gZSAsBYGHVKGI2da2UjoupqYOX4GwiMZ+nCun+4p3htXFamIZImjG0ez7AvlQbU31aFkZj8omU0AXP50riMprx4Ny/N1fbKzIZ5tBNNNsuTVeAFeF+ADE7ibe882bb0ugNtqXuOfOXBRF5S4ZFG5S6oYKGxcWLzGsQKJkxJUcXRzpzqUzOwHJbMJgo2goTslz6EB0O2s78tInEpnGqiRYZFf+9brEeLnglBmQagyxsF5OQkBGfbRBEOBuPCey72o0GrQ6KqRyuG+hvAdTkxwtpWTDnRZmTjjeqtKTcnMflAyu0a8Vdcrr0CdvVwfkUvxAUmyFKcpn40bhtxy5mI2txxiOpRvLAOQ1CIotflQb7O56oETDnBZy/CZNdsa5BHEBq82u9Qr56oyHIUkx2SWfpFjOEmR/YVJg5KZ/aBkdo2IoDEcaU7I329rl31oFM2x/o8a80zASFaTu38INRM3Bz4S8JRxY3kkMRXiQwYLM1B4DlINSY8ua5nbrG9l3BxnYTkB4YMKLMK5JjA4e+lJgZKZ/aBkdh1oh4u57XREnj8aljdwpDrjYwhmDKGNBlrVCO6qKR+Qkw+kFgLDhTwFZtaUie4nx9y40oEzrR53dgKC70l+ZrkXjyQ5HLPn4zWOnIgYb9ErmdkPSmbXAU4IxNOD8k97u+V7u7rkYjgtEW7JjYaqGAdyDfQy+JpvrUQlB9eTZFblLZRaKjbGy0G11ULNBdGYQ0iMm2MoCde94lQoQLip+G52wX/OVaVK5GsHOatAIsl+OZkjsx8qmdkCSmbXAWNfMLDTbUnZfjYq/21Hl5zoTN2a+LPpiuGsz3zGf6C0SEogGY6lcacSrktlDJ0hLbzOrk/FEX4tJyNqvNmJB+41xxnWMi73wusgPitG4+d6V05YpNIDUo96+y7I7Ad7uvkDSmbTHEpmkwAuebrYlUKj6JFtZ6JytDVpBsGndOOYbqCV0m21rNW8zyX+A0LjziLlILQyMF0JdyZBCnKJV84lZegI37vxmiQZj/XLNnRCb5+LZusL/09Z8D6VzEaFktkkgc8bONYSl+cO9Mp3tndJGg2rnw1EcXNhuaoEt22yXltH/p2zqCC62SC1cGZQOrlf3VQH869kNipUO0wSGEqwqMIjH1vil89vCMncAAyNKwQUNxeUXFBpJtHd5+BZfuLYGOoqDWJoSw5kxzgVtoCS2SSB4zZc/nNbrVeeXFNsHkrMXS0K8pWC4sYDfHU5WaTGRJXMRIKD1VO0RfFPkvUzHcBsIpktohy8PdyH4goomU0yakJueXB5UB5aGpB11R5xMFZjujQYxRQGbAjky408GaZCflZcCSWzSQa9HEaz37fML4+uCsqyMpeE6NoonymuFXCFK1yFcleNR76wsVSeXhcy8XWKK6ElcgNAl3NpVZHcvcgvD0KhzQ05hUO1XLitUIwbsJdCqPoq+JXrqjzy5IqgPLIyIBvm+UyHqbgSSmY3EJwQ+Nf3VcimOT7xc5wjP7RAoRgLcCvdUGVbocieXR+Sr9xbYTpJbbTDQ8vlBoKuQE3IJY+vCMjTq4slyMDMoYuzFYqhoImkB2VJiUs+szYkn1pfIncu9puAXy7ZUgwPJbMbCE6e8cEk98Dd/OTqoCytcGfHz6ZBWJPiFgFExggSxpPdOdcrv7e+WB5eHpDl1UW5ExQjQcnsJoAR6GtrvfInd5XLHTVeEQZpKqEp8kE1xllvuJZcwfAHt5fKl7eUypaFASnR4NhxQVcA3CTE0wPS1peR3x4Oy6+P9sqR9pSE8ZmRb4qZDbRAqgquO107yyP3LfDLkysDsqzKY1xLxfigyuwmgYub55e55YFlfnlmdbHZidXFbkS7kpkN1L8TifFjNSGnGVv92r1lZsZSiWxiUDK7yZgHQrtniV8eQlpe7jYxREpoMxQcakD91/gd8sACn3z9wSp5YmVQQl6n2Q1EMTEomd1k8GlHCys8ZlD3jnlemeUtlCLarRLazAKILAg1trTUJQ8uglpfUywPLvbLYnRwnLFULps4lMxuAfgYt8fWhOSR5UFZXeaSAMfNdMnTzAIUWaWnEIrMK1++vUQ+v7nUPKyZGxYorg1KZrcQt80pki/fXSHLZhWZh/MaQlNOszdQxw4Q2T1Q5V/YUCJf3FJmAmEV1w8ls1uI2hK33LskIPcvDsjyKk92DGUyQWLkNUmSPCpR3jqYumDYhUPWo/N6ZFlAHl0ZkE3zfWZHXMX1Q8nsFoKPUqvwO+TLm0Ly6dXB3GaCk8g4vBavmULiRIO6srcGLHaWfXpQVle45at3lcqn1odk3RyfDvRPIjTO7BaDfBPPDMiBhri8cLhX3qyPykk+R4BjJ9dq52g4XDq1qaZIFpa6pMzrlMbulJxBOtmZNrviMsTNdGVsTNqebhzYulDJDJx+YmlAHlzil7sW+KQq6DIPalFMHpTMpgh6Yv3S0JWUb73XJa+djpitnPtJMtdCNFBjfJrRl9aF5L7FfllWXSQnmuNyoDEhOxrj0oXfCsf7zeaEfVBsPF7hgiq5XT9QnqQqPoSlLOA0wwj/9q4y2TLHq/FjNwhKZlMEfGxdEsTy1ok+ebkuLL88HJYo/3AtC4tBTpVFhfKFtSF5fGVA7lgckARczRjkWASpAcqvvj0ldSC47c0JqeuAEuQW3/wpBxI3ZVNCuz6gDtCfSC2I68k1IXl2Q8ioZD7RXV3LGwMlsykGPuVp59mo/NPubqkD6VyCgpqwK5gjs8+vLZanVhXLvcuCuT9k0RPNSGskI01wO0/1ZOR8d1q6wmlp7U1LSx/e4+99fKIxx3koL5Tcxg+2JpR/Ocp/ablbHkHZUx1vmOs18WPc605xY6BkNgVxrjMpLx/uld8ej8iHcAtTaACDk0hm+WDlR+DSnmtLyLGmhBxsjMkHLUlpAqllkgNGsCUHoRpxvDw3oe1xeKB86EB6kbjG8oElAfnKnWVmGygtshsPJbMpiDjIpR3KiershSO9cjackbg1YD8eTIDMiAwUGH8zCvLqhRJsgTJrwW82QRnyqd/H2pNyuDMtGVzXsB/zoRMHVyOTfRTc3XOK5BGU+91QZDUlbrMNlOLGQ8lsCuOD+oi8AnX2y2NhaQG5MbpiXAQyQTLLB9VXEt8Px+CKQp1d6EjJGZDacbiiHX1IyEcbUmdiQMLcyohgnmayK5qL5VsBt3JzDYhseTZ+jDsNK24elMymMNhGjkIZ/fuXLsnB5oSEE+McP7sOMhsOaVyPkwcnWuImhOTD8zE53JqUMyA4kp9py1BrAzOU0ApRPk7443+0tVQ+eVux3LHILx7uKqy4qVAym8JgxXRF+2X7+aj87GCv/PpoeHzxZ5NMZpwH4GxrH1zQbqROM4EAdxTK7SJd0daEHAW50TWOUj5aebQmD+wIVk6OyTk+9umVxXLnQp+srPaYUAwd6L/5UDKb4uB4VgQu3S+PhOVHe7vlFMijN4kWNFrHP8lkNhwYRsJYtQudSTl+KSmHWxLS2JORdhBdb6pfOhjLhnzGkRdjYGzbdlFu5GscvPhnGXdAWRKQL24IyexQNvRCcWugZDYNQAHQ0JOSPRfi8rdvt8uRtmR2o/iRcBPIjEZjhAn+6Qe30hXtjGXkTFtCDl6My/YLcEVbknIpnJEMv2BNGljH6Qx0MF7cQ23QKX/6YKV5nOAsvC4EWdtViE4HKJlNE8RSA9LUm5ZfHeiR109FZGdDPBtQOxwx3AQyGwoaEZdJUa3R3Ww2MWv9cglHLqU6B0VZ152Wbii2JNdSGWJjyn5/WgAk5oa0rPIVyt0L/fIJlO3muUVSC0VWxF1PFLcUSmbTCCSLY81x+e3RPuNydsPVM7U3lM9uAZkNh2RmQLrgdp65lJCjUGm74I42gdB68RmffxBOw4XGOVR2HJfLuqLmq1MPyGMQHuQsn0M21Hjlk+tC8gzSVM7yTIOS2TQC3boEGv/uc1F5fn+PvHkuJmd74cQNdTmnCJkxv9YyrRTyHcOxPZyWhq607LsYk/0g5n0gOca3cRjQDERRrU01dmDeQL7rqtzyABTZs5tLZUm1R0JFOj42laBkNg1B1+1oUxzqrEc+uBCT1sSADORLhClCZsMhZgJzM9IA1/MiiJiJ99PcA3e0B+5oOCNtcFUNgfB+bjW5oSxL3IWypgJEtsgv9y/xy5q5PrNbsGJqQclsmoID7v9zV5e8WBeWDy7Gs8uNrGGbKUxm+aDh0b3kbiGnWhJyCMRMV/Q4lFsKpJeA/5nECVz9gFv6CDeD3Ph7SCFngQmG/fSqgHxseVDWgsgUUxNKZtMUdOGa4bL97mREvvlWu3RB7TBy3yiZaUJmBI2PEwJcThUBgfUgtUUzcrYtS3B1LXE52J6W7iTUGmEpNR5vJFiW6UHzJPonVgXlLriX3KM/4FFFNlXh+PrXv/6XudeKaQSGAPBJT3wABpt1D1xNkoD5A9qhH4piTbVHlld6ZH751F1Ww7xzx10vXDm6blVBpwlzqPQ7pTrgkNqQW2pL3TK/1CU1Aad4cV+DVGtGiuLLTFY8RO5wzeC1csc5xS75+GK/PLG6WO6Eezm3zG2efaqYulBlNs2RygxC0fTLf3yzXX56oAeu2aAMTCNlNhbohjIsheNpXPS+/WxU9jdAsbUmTfwa9VoG7NMPQuMw2/UQWgF+qwCS1+soNI99+/oD5aYjCOlmitMCSmbTHGzsXCWw42xEXjkRkR/v75VuKLRKqBo7kBmNkzOilhvagXvrjPZLO9L5Drii7UmzfrWhB59z4sAKyiWpUbGNl9zQAbihEKkO/9nGEnl0aUDWzS4Sn6dQH/82TaBkZhNww8X9DXH59s4uOdAYN+NQn98QkqfgJk1nMhsOJG+Ge3AjyzNtSTkOlXYOr5vCGemBSu2MZZdTMRQkTba3iI0Yykv4M0fBOGPJB/BumOeTL6wrlnU1Xt26Z5pBycwmYCV29mVkz4Wo/HBnt+yoj8rnt5TIU7fZj8wscBKEy6l47IEqa+5NyWEQ+e7zMfnwQlzO92ay2xSRk6iuLNWWDygyLz5aW+2RZ9eXyB/fXS4unKNibPpBycxGYMQ9d7T47cGwfHA6Isur3XIv3KX7VxTnzrAvUiClONxQrg9tB6lzL7ZGKDUupboId/RIZ1oa8D4B5ZbdtTfLVotLXbJhtkceRRltnu9FmRWN2zNVTC0omdkQhxpiSHHJgNxW1RTJHUvsqcxGAxVbd7QfZJaUerihu1pw7EhJF0iuL9FvJko4RrZlrlceJuEvC0h1sSv3bcV0hJKZDcHxJO49xgHyUr9DFs/Qx/9z4oDja2mUB2PwuBdbSxdc0aaEtITTUhlwysZ5Xlk/1yc+d6HuQTbNoWRmU3C/fj6L0+XMztApcmEsILRLfWmjznweRzamTRWZLaBkplAobAENaVYoFLaAkplCobAFlMwUCoUtoGSmUChsASUzhUJhCyiZKRQKW0DJTKFQ2AJKZgqFwhZQMlMoFLaAkplCobAFlMwUCoUtoGSmUChsASUzhUJhCyiZKRQKW0DJTKFQ2AJKZgqFwhZQMlMoFLaAkplCobAFlMwUCoUtoGSmUChsASUzhUJhC9wQMuPjnvKTwr4YWtdjJcW1Q8tydEw6mbGQB4YkLXj7Yrj6Hi2pLVwbtF2NjUl7biYfqlrXHJez3RlpifaLp0DECap0FxaYR98vKneLPi/aXogmB+RQQwx1npZL8QFT52M9FJyPI3bhHI+jwDxF3I8vzSp2SRVSNZI+VBwkhRaZ4hPYoxm51JuWRqQulG9fakDS+DzDFltQIEUozGJXoZR6C6U66JSqkFOqAy7xolxnIiaFzFj4DT0p+dGOLnn3QkyOd6XED2MtQoH7nAXy549WyUMrguJFwaut2gcd4bT8eEenvHk2Jgc6s3U+VjsimblhFwF3gZSiNZajES6r9sjy6iJZOrtIyvFZwFMoRbCVmUhscRBWBMKgNdYv59qTcrwlIYeRLvaQ0Polmh6U1MCgDKJwQmhbFSiveSVOWVqJMpxVJCuQZhc7JYjPPfi7cwYV4qSQWRJdxRGosj9/8ZIcbktIDBoYdi2FuDIffP+/3VchT64JmoKeSYVrd7SDzP7n+x3y6pmo7GlNiQNENlbtgsfMOU684Pku2IMPEt5XVCher0OeWh6Qjy/xywqQ20xSGGyETEcbY7K9PipvoEwv9mYkluqXCAgsCUVGVYb/L7uXbGP0fDyQul68CaADKIe63TrXK0+tCMiSKo+U+Z25s+0Px9e//vW/zL2+ZjR1p2RfQ1xeOdEnl+BiDsAGKYXTILUMkh9GGUJPsVLJzFagm3kQSvwUVNnFSL9k8BnrfbREm0jjxCQMI45GGk0NSg+USDvsphluVTwxIFEokBT+RmVR4rN/YyRJNYUz8tqpiLx5Iirvn0XnADXWADJj2cRIZig8tiUH2o8TxFWIYwafxVGgMaTexKB0oNzaUI49OPZGMpJA2bI7KA84oXLt3+4mhcz2nY/JO6f65FBbUuDaSwEKuwCFxzSIMuxD4bLXuG+xHwYKV1P5zBawyOw0OrMmNCL6hU4QkM/lEC9cRa/bIUXoyK5IsI0iqgkYgSfXMAtwHIT/OYjPmkCMp1qS0t2bklIQ2UK4T2zAdrUZDtF0w6XcfTEuf7OtQ948HTGdQwINpxBlQ+XK8vJBxnqhwEqhtMpQLsUeh7hQKA58n+ewzQ2gjDJwQVuhmA80JEBoaePSL4OIcOHvJEA747rcTH6R6e/f7ZB//LBLmvvQ5eKDIhg0Qd+e5FaE4wOL/PKXj1XJ/HKPhOBOKKY/2uhmvtchr5yJyIdwM1n3qyrd8uRSuDgc/woOo6pwziDsgUqjA2quoSspOy/E5WRnUrqgyvAn4zqVuQvknnk+eRRu58Ori2VWiAMW9gKJh+Xw43098usjvXLgUlIiqQHpZyGg3VT5HLKkzCVb5vtkWVWRVBc7DfnjfwMquj6U2Zn2pOxrjMu+prgZV0uiXymAJCtH57EWncHjcDkfWBmUVTXe7BdtiusiM0rcDrgGf/12h/xgT7f5bA4MeCEK3QVCu4Qe51gHjByFvgHG/S+3lMrdS/zw5YvMuWMhgYpNUEZTXwt6luzHEwbHZvzoyei2sJcnaAgxKAu6O2kaD1AE1Uj1wB5wLFlOg6MhhmE8/exeAX6HM3TDkTXPT8BdYJnxNwm63FSqfqgY9pwE88V7jiBvzCrzFCgqvJzvoWDW2ShYVkleG98fMPnJqh52LLwnzh6OdI1rxVVkht++e65X/u3WUtmAzmsuOq7hwOwxn12wHQ5RUJXsQ2M81Bw3Cq8X907Smx9wyO2wmz+8u1zWz/EaVTIe4NKSwT8xtGrWUao/W970FFjmrCOOxxlFM0yRsDw5EN+H7zOvPIdTV/7c5MR4SnE4+yA45GK5zm3o/DnW/L0Pu+UNKLI4vsOccvxrcYlLbqsuko21Xtk0r0gWV3jMjG8+eNUo8nm+IykHmxKytyEuB3G9cz1paUPb48UqYTtryl3ypa3l8vGVAVOGQ4d6mL0w3FnaUCaXV55jtRnLNlO4H5YL7ZNCZQCJNuXG3825aDfXMoxk2TyVfhJ1lUHWzXgqruvGC6PokQ+j4nPfGQ7X5WbSGPfBzfjgTFTq22HMqPX1VW75xGIfjM+HMwrkEAqZXQnyIwXI7CL0FPNRMeNBF/z+Rhj76baUXELDaYdsbu0bX2pjwvlscN0wKBaIG8RgVQwLrrk7Kee7UnIBqaU3bUiGBeaFmzRWpdBQO2MZOdYSl4buNL6fMfnj5SuDV6sIns+/X4ALwZ6Uv9cDg2NF0hA4e0fEYCytMPJjMEpOzaOODTla+R4K0/BwEq9nXZv304Q8sX54fRcMwp1nlJOFq9xMtIN5UFBbQTyzS90SGmG8i+TA8g2AHGaH3LJ5nlcWl7slgXqiWmtDvnGChHH9rtiAVIPUKvzZc8cD3jOJ6CLKgTOCZ9HYL3axjmALqDOqFs6sszyGdlpsyux0LoVBNI0J851Lubr14DsWEY1VkqzvLmMfCdhH1r6YCIaiEHWwne9u75R9zQlphwvDGUoSEGcof399SD6/qUSeWhuSOaUeQ6RDf5PvSSSVAZesBunfDiU7iLz3oC7O434FdR5HWVyALVSiDGdBaPBc2kI+SLYso3Msp1xee1EXls2wwyX6YK+XemBj5tw0SDRlbJWE6gKRkXiGXns8YMfdivI91ZpASspppJaejHTiPqKoR7rHFEceXH+4zsfCdSmzo6io737QIe/BoE8aBSbyuXUh+RdbS0zhv3wiIn/1ZjvIDD0SMlMNY/jTR6rlsxtC45p6338hKjvOxGRbrtfiGMKIsO5i6CmoTE73f5FqAY3M6t0uwK15/1REdp6PyVmQAEE5f98Sv2xe4B/TFSYRsVf9xx1dpkLJYszf46uC8lUoiaHoQQOta4zJG6ei8iHKi7XC2LtNUDIPwwUg9iIvNOwzyE8YRL56lkfuWOiTB5cHr1AlWQIblMMNMTmIOjiAyqehJWAUCRAy/myKgYRBBUJltwTksq62SLYu8Ekx7o2N+XpxrcpsOPQi/2wkP9vfI6+ejEgDyouE4EVDWoYO8vc3lJhy5X0NZwVWXNb+izE5BHftOMowyjJBQ+PfaB68Y3ZW7Dwq0LgXoUw2zy2SDXN9Rh1bHRjL94OzUTN8wokIShcHSIbE8uRtQXzXZRTLaGhEoz8AxfmLAz3S3tdvVMtSKKSPLQvK47eFQNppeR3t42/faJMWEEeElYbfoAfzIOr8idVBWQ4PpiwwPjXK+6NyIiG9fqJPfry3Ry6iPCyVe1u1Rx6B+//VeytAps4rypCd4S/g6u46HzUkyGGAxai7z24KyTzYKB2Jt5HXk21JaQLR0VNimVLwUkGR7AIo04WlLlmF37ljkc/EvfGzkcDvk+TfOx2V47guQ08iOSVNT4nUnSVSKGnUTRXKYRGuz/ayCoq1GJ3bUMFxzcqMCuLYpYT8ZF+vNOAGwWMSxE09sCQgT6CyOF7Sil52P6Qv/xZDJrvR+6yo8qARu0wczFjqpw4NdRca+CvHUJAwznPoYc6hsEdM/DsY3RytBJLtgTFtRq81FxVjkRR7n70w2G1QlbsaEqYSS9DoF+CcBWUeU4CjgQV/Corxh3ARDqIcLqD3bkDjXlDmlsdAPkPB2KEzaPBvgkBfRwWex+9T0Vd44Zbit0ioLxzulTfqo8btouvgA+HUQOlwFpgNkAZL94UGtQfl+jau9QYa/uv4znHk4Qzu9QL+djGXeE+n8dlJqOZm5C2cQO+PIud1gyC56x1Yv1ZlNhzYuc3Gd5OwKyqy86jHBAw+g/y1ov5q0Andg86Gec53l8kBbBin0DltvxCXN49H5K36iGw7h3yhkdAuLuLeWR4X0GD4/hTKth7lQhugu8sJCA6oMw+8NtUay+3XR8NowNnyO4f6KUcDmo8GxdlBS0mPhBOw3fdhWy8e7ZOj6Gw60DnNh+vIeDqGTFCFbEdHzfqO4R7YcIuRHkH7+czaYlld45WSCYRVsETYniqQNx7ZPi+h3DpBlFRoERwZKmU6M7Q9KjoLJMHXj/fJO8jvbqjR851p46avmO01Y3AH0MG+cKhH3kN74WsGSbMs2e55PAsFfCJHdFSjbO8cHuHvkOyGU7/1UMzbz8aMzb+D6+5thHvMusI1miAOzLXxO+zYT+Bcq74YJFwVdBiFPNTTGL1GRgHduLP4gSYyKgqOPegK9KALQQalPocEydQhpzy4AGoI780d4MdPohL3wtDYY44bzPOV+b4aNHDeHHvM/ITPCnBkj8y3FngqZ9YcNEr0mkyFOGHCDdx8F/LXjR4fZcAZuuHAT/knzjpl8wY3B9/h5++e7DM946tQbc0welMrw1yH5Ecjff9cXP7Da23yTwd7ZT8aDQku+wNMH10/+94IZjkPA3kJ5Pfnr7TKWyBAKoP8sZypgjuh6J5aU2wI3oBZZEeI/Ne3JSSKTiEfdCl70ICeOxSWv3itVZ4/HjazgQZWmbDMmUwF8DM0dnzvJBrLjw/1yl+93Y5ON2Zm3S3Mhe1+Fip7UQWUPK+BOm4CKdahMbMOxgLJcA+uCQ1u6sON9rAein851Dar6wSuc6I1LgOsK/zvQ/5WUHnUemU9Ol664NeKpSDLf761TBagQzGDcEAcZcjx7ZOwl3a03aGgzRfyJ2nPKPsEyqgRbftnsLG/eadd9uF73VR5pgxzyQI/Q+fYjLp5B53bX7/VLr9AuTZ2J43Lng++Y5ZeO9Yn39/ZKbub4nCxUe5W/Zj2gQLPry/8Flc/1KFT4JjgaXBIKjfunI9rVmYcJ3sHPeARMDJ7t3KvUx6BhL4LzL8AEpX3ysbiLiyU48gEWZsZ5BgQ3bENkIscTHXkF8oQ9OPWye4LKjyydb5f7l44WvKZXpPuHOrN/A6tZj56dAYRPrIiIHOhmjhuRnSCNM7AHamD4bdAQRLLK92yBj3nQvweB4lHAw2aY2VvQmX1oJLp15PINqJHfWhZIHfWR4jjnGYYB1UcVSbLwoFui0Z2Ej3bGaR25L0aPetSdAjr4W5shMJZieMi5IdKIAw1+BJ6+pdhCPtQqRxr4CD2bPTg96KhPLoiKA+jDvj7D6KH34pGQTVAXujDufw+Y5bYfjiOxhmyaxnjsDCZyswCOx26ykebEkZJmskf/F8NVVQbdEkN7sdS12wY51GmP9kPRXs6YnrvJO6PKmspbOHjcKs+saJYPrGq2JTHvbCRzchbJWyqALbBGC5G1NO1YQhDMep8cWXWNSbP08U5Chupz9UXKYDKdivKumIE1YSmYJTi71BHVOFhXJv2TrfrM+tCsgoqmx3mc1Ak78Ml7sbvD+buj/m9E3lkOMoozWJM8PpURqdgax0grt4UJ4U4TghbgbCoRR3VkuhyYIfwITwgdgJceUACYZhHL+zlNFRRODYgi+Ca0p4eWxmUjy1GWS72y52cZa1wm0mNS2x3+BG2Ow6BsN56Emh/8MJKUV+WmjZj1b0pefFw2Mxi96F8uBxrNQj403DjH0ddsRzuRZvegnbLdkAxxBrvgNJ8ALb9MOyc49K0lXxMmMxYKLz5F4+EjYvWRtcFn9Wisj63ISRra+HP5noVysCQr1D2nI/LBUjIfrzvhgFxVunOeV5zk6PJdRIKC51jPbfj/NHSUhRqAfJxFD0elSLbgA+/swXG+zgqYBPIkO6BBZJZ/VAywzVWXyeZbRiNzHA+x7gMmcHYOCPUDuNpgOpgfkkEG2qKDPmyU+Cg7nwQWwXK1riXaLj/Y2eXfHAuKmH8PkMY5tDI0Js/tboYiiZraPfAEO6cnzWEWQG4FGiBLHeSH/4341OU/nfiN3iflqFNFDeCzJgXzmw1oIxI7gwCZeMKgaAqigpkabXn8gQLCXo/3JNvbe+UU2h0tE2uJmA93gfC+dRtxaZxPLQcJIGGx85hDZRRCWxuEI2oA9dmR8zEINNy5HczzmNxsKFwKGQv3K5TcDP7UV50f/tRlg+iIXMN5HDlRsXQhfJ9qa7PBL/C2o2nsgwE9QzyMx/lQvf5RyDgXci7GfTHLVIJPru+RFahzsYarx0LrFu6ms1wvdvDGTmPRAvnjHYxymcRymcp7NzCZTJDZ2DIjHWAz7gmlIU6DzZ2P2yFHcNTq4OwLx/EBcoTdsfOksMW7SA8lmMC5Uol24Y21YzfpQ2yg+aYJMEJmJMgWRJ9HcqV98/wk/twvT+4o1QeA1Hdg9/aNKdI1uK7K1BuZSgPti26w0+vLZGPLQ9e5WISo7fYYcDBQs4WnoTx0J/lYF0RGL8MFbYEP8zZEgscZK4Ouo1xLUBlmR9DWcXQsI6DdBjcNxqyA4uFJkiQyzJGSiW4WY5R7IDxNKAA2Wh9uNcV+N0H2DuvCV1BZFMF7ME5E8T6Xw8C++snq+X/eKRK/viecpPnLWiQVLksBxLZbk5WQMH1ogNhG6hBb/4xENe/e7hKPg4jmFPiRgMsNOMhVGxsFBzc/vzWUvk0GvVGqAKjSOIDchHEegJGxRnPqQaO561HXueCxE1PCbCDYkQ8e30LJ5pjsgd13oHOgAP1XiippWgYT+Fe/819FbIRHRgH0Gn2TBwKqYJ9PoCy+v0taDhL/LKoxGkacyOuTQXGiSHWCRU8bWsxFB7PofdF202i7M93ZGfMh0MEfz+GfHWyXFlJyP8SNPiH0EDZeVthH/1IpuIJnMOZujl5qvN6AT6TSnglVehcClmG+J9k00Slxh5tLDBrOH8d6uGLG0vkK3eVm1g1dlIcy+OKHrapNSC0ZyFi/v7pWXIfOlLzw0wAQ2M+PBOR4y1x855gR8XF81y1YCoF5UFC5MB+BTiEtsuvU1my/CksHllZLF97sFK+/cW5sPPAiKQ1YTKj8e85FzOszUF9znwsgXrYCnVUiZvLd1uM3IUVUGFwENtp6i4r7zmLyEHV0UBbYA9DFuZNDpc4sHkULtcHZ2OyH/53FD0jx8IWwqX8FGTr3Yv86MmRL3w21TAAYyHFstd7CoZyB8hrBZQHSYl5DqFyqZxYDgy7IFlz2U92tkeMIn0QKpBjJNagNMuL5/Nu+ZqNYy4M8C6oibUwGP4xDeOmUjvJgekpSGa0myBcD4ZCmEYFkPjpdloxgcTh1pRRN2wY/Djodhg3+x7U+TzUP++dtsOyYGK50D5JcFQm3PxgKVxt2jBDGNo59NAGMkNj57n87nKU7drZXqMMSDp0gU+icTZDjQ6HXpTrwYaEXOLYJ38U+ZqH+twKpVwCAjBkhmuYcU7eChNaL11RTjpdj9s/FCzDIMrAuiLjwmJwOalwRgXuk44JQ0SoZulpLM7NrNLGWC5UrmxTVK81IXhPaOMPwcZoy4HcPVDd7W+CJwLFNyJQrtxlh+NhLRA3DMXIfWyuT/unZ8KJtTXwWjjBMRImRGYkeM4ovHWyD65ZrucBwXLa9yH0csGclMwHJe8qZOI2MDiXXrCGKdd30D3pTJtekdedKPgVGjjjxF6FpH8XDf04ZCvrieMTHBv57KYSWYfjlATySULiDPCnQGRPI5GQrJiefLB8OHX94cU43MusG8DvcuxmCxoJ/85yHCnxt7ijApe1OGAgnL2LggA4o8ZYvikJ5JHjUxbY+OnCGQ5A4nvWN6PmEzliCMHwSe501YYrh/zE5Va3Q9VyPJJmzBbPTvYs1Cpnni1wRw+G9HhxEodHGCLEGMCLsN2hYL64NGkP6qkFapGTPRwKqIU6WlObDf9gVkkmPF4GqpzXNin30fWC1+KY3+UQEhYREsvtit8eDvg7A3fpTW3ITUhYbuJwwKnGC7sftvhJKCfOOBLoe+Qo6ugsh5jwo/xZEiE7aTN2jTzyy8fh5f0ObufuiwkT78YO1gTxwkY5q8p8E7zqaOUzcg6HgBdkD8gp8zdBRC3Gt8YfcHUuUVoLd2a4cSbml73kArigDhYIChedg/Gpz0NtMMiTrutEkYZBcFbj7dMR+fnhsFygy8pSBehyfRluRHlerzTlgAJlKMiycpcshjtMJTYcaHgsHwZVNsTgZrFiUYwca2CjoFKma8T4opHSefydg64ct6PbzgBEjm00w7XicpipBt4ibPiyERNUAlQFrGJ2YiQNBnZyVwmu6aRd9YPhSUSMfxuuHPITlW4LyiTdjzKB3fL6dP8Y/MxGZKEGqmoJCK0MLj2JgWOlu5uTcgpkxrPysmjqqQ2dwzHYNN1MH7ySFZVuMzFFMqBSZqhC9j7yLBMXGsTNUiFOVm3weswr78kAP0eC432OOUaKm6Jt3gGVNQcu9nhBz2wOvAAX2zl+g7abXQTfb+qL9lrsdcpqEGQp7Z10gXzSBM9DJH1nZ5f82Stt8u9fapUf7+qSXaf7zAoR1vF4wMuNC5yZbMpF/3J8gT27H5XCZRfzkBjUyYqloeUn9oI+D2dQnLJ+lkcqQTBkaU6N81qMQ8vvCccDGhtDQ7bVZ+PE6rvT0geGrILBPbo0IA8s8slt6J0nIzD0hsEYjEMWlbnMzNhIeeXSJM62ccwogntEsZkegiXG2JzfHOmT5w70jpl+dTBsgnUH2HDwXTP5QDKYgsKMvXE3SME0xFy743gYo9hJKHTVounc8hvkn/dDS+akCG3il7jX4cogP/3iYK+8cLhPjkHZceaOKjCKcm7F77K8LZD8uT8Yx305poOfNUuFGFPI9pBPfFQUDGfowN85tsdQnXXwShaijo27i98goXGSwoH7MK0vd39sJ+yY2OFMFnpiA+aavD/CCbLnHnIk2VEBm+OgvhVmNV4wUJ48QFHD+2QpcliA4RkkJLZ7DjvNCrpkC9TeHfO8Rk1zHJdDCIzH2w4bfQMk9tLxPnn+aJ/8HHX1Imx8JzwvjrGPJnzG3dppYBxkpxpiD8IupNRTIHejsmphZMw0ewLuOJufOBjPcQZOrz692GemeM1dooxOQzG8D2XF5UYTAeOBmI/nDvXK2+dicK6z8nxFmUf+7L5yuQ/ugzXWNJURYpAuem0v8j8SWNRcZpVBMm9YdjidHPQrKNJvvNU+7vRLlBfDMyxXqxsGxPGbqQbaSwNsgwGYphJxz1RPc4tRVmhkVB20R44BZZksi7a+fvkH9O7/55ttw95/fvom0t9sa5c30RlGUAS0QIbJtEEBc6DcAmuGBHDnnCLhrJ71IZc3HUFHnB+b1gi1x3Fg8wkuEUReOevH2UMLbOSsbwdtloRG4MA65uw4t++ZDKCIpA3E2gbhMcAfwP+czaSoKIbdjQWSLwfgJ7KnHMe4uOlmAGQN/XIZrKc0w0NwNGSOaz6zOiBf2VQic6DmvMhcIcqcy8xSyHgnOoNtcNX/x75e+Y+vt8n/9eol+T7qlYHhYfwtr8qvwLhyyi+zgt/FD+xsBpmZXqVAupDBD/ADf/dep/zLnzbKV59rkq/9svmK9Ce/aJJ/9b+a5C8gHX9a1yf1nO6lgSK1RQekjoG3+Iw+8lig7XKm6S0Q2H/Z3iVneC18Vgjmf3SpXz6zrjgbVgHju+FAA6DBjFiyo+Favsdu3aTce4L1wAQjGncirN+/lrzfYFDNMxxjR0tSzoKczP0inwzNWFTlMe6a5S4NjSw35060TPC/MSz8FK2GC5qHXpeNfyNcLo59GWmMVsP9x6h0GSFvgctyGBpkJlxxbZ+30Iy5WWsxLZhxZHgzq9CRmXFk/BzH67ZDfdAFvl5QuVLJHwWx1nV9RK5e+LgLyz1mKddYoG1ToJgOYyLg6fxO/tdYzPjJ/GKt8LtMrNp/erxa/uKRKvnnm0tkIz03uqgsY16D50PJteNetl+MyX9+o11eBoc04p6Gm8QYF5lRcXE5zLG2FHzbXG+J/zmbeRbvuRzhF4d7IQvD8sIw6Zf428sn+uQADNQsr2AmkfogGWkUnFXjdO1Y4OLhD3FTDJDkcpUuGD1l6krI+IeWBMy6yjL44pcHPScIBi/2syCvLqerQFJlvBal8zVjHF9lUXOGi/uEXa4tfI9LU+hKM4Dw0ZVBE8w4ZsK5XGrFxFk/GpNpoFMI3FCAQdanoFK62MGxBeB/hgMwxozr/UyZoGGatbp5ZcKQjrugyoe995ESywRl8djygFmKxzizUv+Vjd3ndpgA47klbthbNoaLs5X7Gxna0m8ImO4PQzu4rIo7T3DpEyPwOebGGb98MNurKj2yEm6cI2c/HCZhzNwJtDHGQFI5Xyvooh9p5ARbSlqhNC03k7Oly2ZfvfvG1SjIur24Dmc/xwt+h243dynJbxeMwXRCrbETssBOicT6iZXFJv7umTVBM6P/KGzzgcUBsxKCIRu0fe5cfQ48sw088w7a/kGU03Du5rjIjMsfjuACYfjf2UEbgNRtZZgNbaxEP52/xq8YSQPgI0YK7zkfM4Q2Fjie8d+gyF49Ecn1poNmxuWzq4NyH1xYxrnR0K4JKGju3JkCSWW30BkdbHTnYLg05BsJDtZy0JSzb/lKwo2f/ePNpfIPz8yW73+2dmLp92rl25+pkW8+OcuErkwlHILrxuVdDLkx4P3CdspQz1wrSGJgmdDdvEzwuTKpBYH8p4cr5fvPDnPPY6XPzZH/+5Oz5asfqzR2lA9OmFQEXWYgn4mdJUNkjkKJ8cjhFLrEF7oz6Jz74QKLrAFR3Te3CK4mM3cl2LhX1BbJKtyPg7eJuuR43YmOtFmuw1AjCohrxdn2pPxqd7d5LsflFo48+30Os6fZUKV4FfAdhjhx/eRE4hCZZwYMM1ohf9yRKppjcEMnHviO2WN83f3LiuWr91fKN56YJX//qdnyv99bLg+jTQfxXXw1yyHorPa3xM06UgqbobBudVQwTuRXkHdm3SABw1kEBbQVPeXdYHqTasZIufPuwHcosYt4J0iM79kDac44E7LtSEpnDyT9L+BDc+U+xyk4CrGGQbFQF4+B2eehF5wIkdGg3CAIzi5lPxA505eR3ZeSZs/10UAz29+akjdAwn0kswn87kTBK5PDOHGyFA2aa/ho/JT/F9oT0gLJTTeIA7UTSSVIjMO6VhU72ehE2X9wMmwWz+9uShi7YEEHUbaPLvTJHXO8ZkyGRW3GnWDhs3APXJ5jRrJwOhsQt/zpjWeGveexEsuDA/5D7Yjv+BE3SNg812vG71j+HGPjNkMM1ahDZ8/odmO/yDsHz7kH23BjTrweFTHDZZZXuaUEv8nAhQxO5b1zedaeC1EzKzsRUBXtOhuR19DZv3eRax5RgMiOgGQ2o909grbCGf4xZzPxZ46n7kDHUt+VNiQ1QrO8Agz12XchbrwW6gHqUfPQGvxmdjY3e95QMD+0Q5Y9Fe1clA0VMpd//ekDlbKyCp0LM4D65xDEhZ4MRETuy3kY4fJZ8Pu8kXr0GO+ejZmBuUJ8gw+jWFddJI/DrXtiaWBCid/hNjEMyKNxcvLGyHMQJmPYhi5MpYG24nOuBf1tXa+Z0WCmK2F8d+OGSWbr5vkntMMAwd622Mdg2lwRoEAbQdb7QWaMdeF2MjTMfJFmBs1RBiTU3TBenhtjIY1aitcPmt6cgEM2osyLST74SdblARgbl6EwAp4bM44E3gMNrBnlyCf9cNbtutzjSQC5inVLVcOtYLjQ++WjYdmO+2EDSiJ/JO65MO5H6f6hQ7SaINsijZ8zwcu43pYf4iY5uUE74R56HIPl2NFI4N+4cSJ/m0uhuDRqrCJZgM5z0zyoBRIUzuUMfz06FG71sw+pCyTqQAtmvrlsiYG5wy3Xo7dFe11SCfVmXP2c7eJ7dA1fBaFzq6i9F2NmPz/mcyS3kx+zjXKYhrvMvHY8Im+D0I7DTbeWvJUhD3eDWB9e5DNEbJXjiEAG2aEfYxwfrlkHkmJ5jmQznLzgw21YBtxGyFqlwXktbgs0B+TEzoekZYUTNUM1Ms+0gfzL8hxOEDCc6+5FAfnSphJZCFfdkDKux7WcXbiv4ep21LWZDFJkZX9QH5X36yPSj4u5kCkWyB9uLZffww8xvmwiaR2MoarYKefZg4L9I2yEyFcF1AW3+aU/n7+kgzf8el1YXjsZMWNuDJCcHXDKxtlF8qUtpbJloT8bKT5BME6NBbuvISFn0HhoSANgCEblFyJPnPnh0g1ynTUgzD3MaGDf+6BLdnORsBn/w9/wP3Mw7rWZjIjG92ZD3S5DD07pXz4GGbMBM9DwUGPCrFmk9ua2MiR/hqQUcyshuKPDgUZIguY+Yf/1vU6zSR9XBVjhAteKa12bSXKlCmfHwFnLFw6G5VeHwrINvXozypTb/pCtF8NO7kXHx33EuDsx3ZUrgOtwYflBkDpFCHUM1wCzs51T7IBLOvJWPVx2xM0RuYaSg8oLobq4JI9lMhKMq4+K4D79HPJgUCwdUq4c4CL3c+GMaXNchvXoymK5HZ0tVd5IZUzVxu2AjnWm5XgbbIIFg3M5THUGRNKMzyOoa24syrHCoXGc/C2WYwPU4Zuo25/s7ZF3zkXlLJRLmj+KE7jT7B2zPPLk2hLZCnLgbw7ND4nyirWZPIHnINGNZigWN8/kEqbhgrrZRt89wXCKiOzkKhz8LsefQyj7J1YGzQJ/xqIS3F2Xu+bsOI18ggNmg+ysXWSHgmNsHBflePsxCAjTCPAZNxv45OqgWUubj1HJjAGV74PIPsCPWw2QC5e5sPmxFQGz5xJjSyaSuLUJXbwors3AWRYUM4kiNDMwa3Ft7uFFMI5nL9j+eRj6EVRuJxoP44HmwsjXVHrMzqOpdL8JrGPiEhOqu6GvqezY6ElKlnGzoNx4TYXF7Vr4+5T6JHz20nSp62EkJ0CgB0Eg3CvrXRD6u2disgsNmHZHWYzbML0jr3ojyYyNgoOhl3rSZryAD4Wl1Ca5d8PgGJZAhdYHdcCATYYOcNaHs2vbUX9cEG/tR8W8shjmo/cbrfGOhavIDHnk9Rg2wXrl7B4HtfPThyCeHegI3kOeuBB757ns+xPIK+Pe+OQmKhsS2UNU8muKZSXHyvI6OAv8Lbp7bPQMzgyDBej6cevljihjEVEWKAeqPxI/Vf3FXGzje1Bwb4GU+NvcJZkTKoy/oiIYCawDNnyGKPWg4nthr4zX68RrDrRzrIiEeN8CH1SFz+yqjGoeEU70lNyUAT+NvrTA7KzKMViWH3fzYEfPJy5xrzyW5eFLKbOFDxdqU33ugk2yDN9FG2UdH4aCao0x3GbQbLpAN/x2tKfPbiiVDfOyG5MOl5/hyIz2QTJiZ8EF+ezIuT6YbaqtN2Vsi+Pc7+N7b0JFsm0cxvfbURZsG6VoG8th29wJYy06N4518j7rcB8/2NdjbIHtjgP753At2jXjTRlvxmBoxpGewPW55xljSTlRyAuw7W+uKTK2QXLNx4g7zbJRU5X917faZRvY/jR+jK2Wy4S+sjEk9+Ni493LfyiYWe5r9r1d3fKTA70m1INEwun3b396tlmdTzeCA8HsOf9pf4/04rfNICAyxoc03FnrMQWE6sFH2VtgRZEorelk89QfvOZazVWo1BVQc1yLR/AMOmZ/9Ua7/Oxgj3HBuGbRXIS/BTDIcA4aEa/ZTQODwfZDrbIRcQEux1l2gBwo5/GRGaz8g82lZmB9KDrRkLgo+ge4lxc5gYFrbpztgevtl2fxHc6WjQU2ytegUrkF0O/QE3OvLLNWEcY7H64KjWc97pP5YgdKUuZmAHVwh7kvPBsb74W7FHC7oD97uMqMnV0rrtppFtemePHj6AcxUN0OBRVUlGWJRpJGWZo4Bpxnpu75PZxTizzdi8b39PqQPLg6ZImEYcFNLH/DveBATHvQ8cRxItU1KWkFyoN77HH3U7o5tBPGKXFbHy6F4m4lLD96Gmtxzu9tKJF/Mcwuwflox3d+hTr87fGwvA0yuZw55J31wOt87a4yuYtkVjG+9sH2wADo/+eDTkMQdMMSKBaz3xyNFHmkKvdDfc+FPXKogW44SZTRAZHkIDrjbDkyHwwj41gjd63lTPcf3Flm7n8ksFP6f7e1y2+hgA5BLeFKpi0ugU1xtpYqlOssuUMLy3QRlBGVFHeLOYhy5IagnLAZxGdmLBr5XgmXnPGef4zytCZUeCu/PRaWP/lNi9lJ2YRX4HxebzXOZ4AxV8Iwr1Sc3H7IrOEGkXEMj8X8MFTeU6uC8qn1JVdtHjGiMmPDYYT+c3ABuM+RJVvX4we/srXMPEp/JAk/FlgQJKLjYOZD6Gl4T4PoEFw4rqosMjtJUqlwIJNbZptnMvJOTLdSYHphPiD1BAqyDjd8FBKd24kwcYbJvMZn5jUaGXdcJYtzu2AutyCyV6Kawu/ieBS93eXxOhomEvo3YzQRZJDLf/rxdwZCkjQ4pU9lyh6GpMGv3EhlRnA8oQrfocsxACKgIuslO+Ba4FPpQJ1RTR5GY+Wmjdw7jetfGbHOKXaWux+N4dO3FcvTMAiqkOHk/XhxlTJDPliCdPc4gM9xl74h6aNnQLLSeRX8Poyfj01jsOX9MNbPoDd/el2Jmb00bhFPGwF0e+ahIbBsuBsLwxqoJgZxvSgUWjNshzuVcoiC6TDI4iyInfFhVEFcT0wX6nMgMoaqVOW2FxoJ7HSJBlzjABS7IRCrDFEHSyo8ZpeJ2hL3uNsH68A8VxZEWIXjIOqWqwgury4wtshxPjGrQDpIYih7KkMq8+xZ2XJkHZC8v4A6/tS6kHmAEB/Zh49HxFXKDBecD++IW+DP9qMzx9+7ofjCIE3+NjtGbmx5pjtjbItEZ/KAf/hUe27R/uSqYvkMyoHDGdYkE//l9u496ATDsFtek6A98Dr8fXoOVO970K6OoA03w6443sv2Ra/u6dtCZvNOs58ZP8zDiGTGSGbeINc+0h3kAuW5cDHvWuCXp3DBbIT9KCU0Cvg9ungMluWDNxivxQFsVn3QXWC2/OHuER/gt0kW3PML5XUZZHSqDEZLU+6PmnAOx8e43xkXFXOjRwvMPZdk0V1kj0KicsAg2BCtxsZpduaL53HTRC7B+PiyoHliDhsSyZYSnGsQWBzroIweWX41mfFJUI0g1UOoLENmuDZd9sUglDUksyG9zHBguXH7bJY9l0JxL38eueke7Z6kyqlxTtQwmd4MeeJs0hIOXkNVU1E/uswvt83yXg5AvVZcJjMQaBMDXAFWE4uO5cY8DU1skCx4PhOiwuvMKkr03FzMzd0uHl4aNM89oILO3/FhJFAlc2yODYaEwPJgokseBqlxq3aSPsuFiWqCkz7sSNjouacbt4lijCJ3ZhhuTCgfLC9uT3MGncRu3LtZCmVuGooS9Xk77uOJ1cVGHY+3ffA8qhHuc881kSQfrnPkWKhZ7oPLcL99drYkYHaspkPA77JBc5kV98fn05zugBp6eEnAbPxAu6LoGCsbV5MZVZjL7API3We4KwbDYDj5R2LhIwE5XkxiZX7YiXNzSW7UuBn2b2I+Uabc5YL3lf/7BfB/uXkmt73mDhjllJEAbZfjcxx/5JGuLe+T9ch746antN2PQyishlfEycOh9zUimR24GJN3T0Wye5Yhw3wI6V3I3P0wuI3zsnuxXw/47VSyXwZQQRdgGJSVXK9GBcHN2Jjxww0JM0jYDc3NW+YeXezBzZEJNzRmwvnFboesgeReDuO1BiItsOfn3vNs6GUekAIKtQ09BmPOuBMWdyBl45iLnuBxFOSn1xbLM5C4NDiuw+PkCGeTjMJBJunmDUdmRpnhfLp8HKRm/mvQoEhmXHg7HjKzwAmSZTBcBs1ytsgJQyfBM4iZYF6s+58HsuBkCY3gWeT9y1vKZBHKgIPZ10NkBAn6KDob7gPfHs3uentVHQ1NyBMVSw2U6Erc+9Y5yNvyoAmc/NzGUjNmyj3xJqoY2Wi5W8ZtszyGqArRIDuQP6oGkx+rTEBES8pdJtSDm1l+GuqD5FON+h2LyAjaPRUC28W+Rjr6BdkH8eJ4x2yP2QJnEzr8iXotrArmj88HXVNbZEJAlqBuS9AmaIsWgfFeSGAsS85UFqMeGdPGnYY/ifv48uYSs3MIleFwYSHD4Soyw/2wDLnb66b5PrO7SLU/+7hCrpflmBw7LDOOi8TIgrUQCY/gd5+BjT21tsTs2Mv7GWpi9Mj4HIT1uEfWVQXyz99ju6fLT2Jn3ZOsuE8h293DIGZ6E1+5o9yIEt770OsSI46ZcbCUA37cBYBLmfgjXF85G/7taIOkEwHDHy71ZcyaNK4RzPZ6aOSoULIvZ+CYB24mx8Ibs5seDug2zY6syPdsGDz3RhoKXpvTyxwk5jgQyYwL6bmoGJ2I6fW5sR9nAdl7cl8nGgDHNviEKrq9Vukyvog7ZA4FlSfvl5sicnsYgkqCLjWlOCt5oqAbwml71hF7SqpVZsUqKiYOalu9fTnqb7zPnhwPeE/cfYJPp2JvPd76QXWYMuVT7unmkZw5EE6lyb9dK0zsFxoby8LUJY4MEzC2A1hlwt8sRZmwA+GGiddS9tx66nhrwihNLt4nKn1clO4yD84Z6gJNBFR6nMTgOJRR2lApHJc1hAa7o+ol3KhKLsDn8xLY8M1mpahjzu5P5NevGjPDb6xF+/t391XIlgWckHMb2+UsOvPC/fizecm2DwbEMg+MEeNwCcdhx7p/Kjp2hozN4zW5v551f0PbHTcYqMJ1K1C24LgRcV2PmrMzSFYscJLr9arQm4lcuzKYmDawJ2jcloGzFqdPTQ4PqjMz6QNQKVH9XC9GIjNG4fNpTtzteCg4DMO8kHCuh7iH4nrandr7CKCRcGxqOhEZwQq1kiJLXlZ5TK+aHB4kDz5AhGkyiOxaQQJj+5hMIiOup92pzY8COxi/wn6gXU4F27xRebjW6yqZKRSKKzFNB56UzBQKxZXIH2icRlAyUygUZgaVA/8meI0TDHyN/6cTlMwUihkORhWFvIUm7nFByGUSX0+vCTCR/x9yuLcSUFgeBAAAAABJRU5ErkJggg==;" vertex="1" parent="1">
          <mxGeometry x="830" y="280" width="81.71" height="70" as="geometry" />
        </mxCell>
        <mxCell id="79dWbAI17CPbcTGJxEno-16" value="" style="shape=image;verticalLabelPosition=bottom;labelBackgroundColor=default;verticalAlign=top;aspect=fixed;imageAspect=0;image=data:image/png,iVBORw0KGgoAAAANSUhEUgAAAMYAAACECAYAAADLC1Q6AAAAAXNSR0IArs4c6QAAAARnQU1BAACxjwv8YQUAAAAJcEhZcwAAEnQAABJ0Ad5mH3gAABxeSURBVHhe7Z0JeFRFtsdPp7uzkbCEnUDYw76vsgnKjgiKIAo6OujguKCOz2XeG2dwxnk+nfHNjOITBxUVRRQVAQGRXdn3RUDCGvadAIGsnX73X10XujtVt293Op3udP2+735dVb0kkPvvOqfq1DkWpwYpFAoPYvijQqFwQwlDoRCghKFQCFDCUCgEKGEoFAKUMBQKAUoYCoUAtY9Rjnlx4Wqau/sg7Tt3iZpUq0wd6lSn0W3Ttaspf4VChhJGOSX11Wl08so13vOkdnIFurtNE/pNtzbUtnY1PqpwRwmjHPLKkvU0WbvAQ51bUl6hg77be5iu5uWzMZ0Eu42e6tmeJmlXaqUkPqoAShjlkMfnLKd31+2kyQO605+0C0AUn2/fR//esIu2HD/LxnQaplSiVwf1oPs7NOMjCuV8l0NOXM7mrZskx8Uy02nzpPvpvVG3U6e6NfgzRIcvXqZxny+iSXNX0rrMU5Rx/hJduJ7Ln41O1IxRDnl23ir65+ptNDC9Pi1+5C4+WhzMHm+t3k67z1zgI8Xp3zTNdTVJ8xBTeUcJoxyy7MAx6v/vr1l76t2308TubVhbBETxwKzFtO2Ep3kloltaLRrSrAEN1i60yzNKGOWUwe/PocUZmZRWOZmWPHo3pVevwp8pzvWCQvrbys2sffZaDh3PukonrmTTqSvXpCtbE7q0or8M7sFWuMojShjlFMwEEMdxzd/o26guzXv4TuZnBMJHm/fQx9q18tBxPuKiRY0U5rRj6be8oYRRjpm9cz+N+XQBaz+sfcN/OHoAawfK6iMnmUg+2PgzH3HxXJ9O9OrgWyjeZuMjkY91sgZvK8oZrWpWJYv2iG/67SfPsT6uQIFZdmfLRnRL/dp0LjuHDl64zMaxkrVC82uw7IurPKBmjCig39SvmDgQEvLjb8dQUpydP1MyMHP88Yd1Hn6IL2c/UlAzRhTQIKUi8xFOX72ufRUS3d4kjT/jCWaA8bO+pxlb9lKH1BpUIymRPyOmo/aaIc0aan7MVRaPBbDDXqR91/ZrXI/1IxW1wRcFwPnGLjh4bfkmyuA3sTeNq1YiW0wMW83q/+9v6KKJTb6WNVNo7kN30p8H3sJHiP6ydAMN/eBbKiwq4iORhxJGlIDQkPpVkll7vvatLmPm/UOoWfUq2uxyjf7x01Y+6puX+3ejhRNG3vBhFu07QvaX3qID57NYP9JQwogiejdMZY/f7TnEHkUkxdrpL4N6sLa/y7vY/PvmwTuoS72afISo6Rsf0fqjp3kvclDCiCJ0YcAR9w4kdOeeNk1ZGAiWeP0FG4nfPDicbm3k+lnglimzDMNOwhEljChiUHp9NiOA7/bKZw2L5qBjt7x6hQQ+4h91KyXRnF/dyUJHdHq98yUdy7rKe+GPEkYUUb9KRRrTLp215xsIIxhUSYhjTvkobfYBWbl5NERzyLNy8lg/3FHCiDJ0YcCU8g7xCDax1hh6e2Rfal3L5ZDDnBrz2QJyFIX/1pkSRpQBc6pngzqsbeSEBwsEGb4+tDfvaSZaxlF6dv4q3gtflDCikJvmlHzZNpgMbd6AXh3sWukCb6/ZTrO27+O98EQJIwoZ0zadqmmONTb6pmg3aSj4r9u63vA3wB8Wr6XMS1d4L/xQwohCaiUnMnGAKWt30GXNMQ4FbwztRfUquzYZEX7y8uJ1rB2OKGFEKU/2bEeVE+JYjNPba3bw0dKlUdVK9ELfzrxHNGPrXpa0IRxRwohScMjoP/p0Yu2XNbNmbeYp1i5tnuzRjgY0vRnEiJ+94+Q53gsflDCimOdu7ciiaEHPd74o9eVbnefdZg1kI/lg027eCx+UMKIYnLibMXbQjR3uV35wJWkrbTBjYObQ+XjLHpbCJ5xQwohyEA37hNtNGirga2ARAFzJzadPtuxl7XBBCUNB0/gZ7nZ1qrPHUIDVKaQP1flYEwYEEi4oYUQ5X+86cCNzob4jHip+1amlZs5ZWRumFEyqcEEJI8rZeMx1VgImVajLAzSvkeIxa4STOaWEEeUguwcoq5oZ4zu24C2izcfP0Mxtv/Be2aKEEeXsOn2ePZZVnQyYb8NbNuI9l68RDihhRDEZ57Mot9DB2t3r12aPZcG4Ds15i+iHjEx2XrysUcKIYn4+5ZotkB2kLHPQ3tsuneW80kGqn7JGCSOK0c2o9GryhM+hYlzHm7PGFzsyaEMZJ1BQwlBQSmI8b4k5EoLwcJhT7mfMy3rpVglD4VMYqOlX2tTSTDl3XwNO+P4yzEmlhKGgqgbCQFg4MpyjnEBp80CnFiwTIrieX1Cms4YShkL6zXzwQhb96QfXYaLvQ7BShFy4OCeiM33TbmnhmtJGCSOKqcmD+A5oAhDxvz9to3PXclj7wxCFhj/Zo/2NGQyimLZhF2uHGiWMKKZNLdemnmjGQELmObsO8J6rBsbMECQwwNIxao/rvLN2B5u5Qo0SRhSD5M0AWc31IjA6qJ506qrLjMHNCmDahIIX+3WhLnVd+W8xY2HmCjVKGFEMMoXo4liyP5M96izNOMpbCBdxbb4t3X+U5u4+yNqlCSJuX9LEofN/2qwx/vPvWem0UKGEEeWgbBjY6LWhtvTATWG0q13tRhTs1PWhsflR8PLXbkmlP9v2C6sn2Pmtmaw+eWmjhBHl6FG1KBbjvgLknoAZAYYwbwBWp0IVHv7B6AHM32hSrTIfcaUWnfj1slIXiBJGlDO0eUNWz8J9BQg+h7tIYEo110wuPUT8X6u3Ub4jNNWS3hrRl/a/8BBLEI0ZBOYfcBfIglLIqKhq8CkoKzdf8zGOsiwhOLAUY7Hc+DaG462XKYvTbP+Z2/Yxp7xSfCz1COGJP/hCI1o1pgldW7MDTvgdUa0Jpw+xWhbsun9KGArqmlaLNh07w/Yz4OD+cvYiZXJTCjOKXuAewYYQx7IDx2iv9hqMI2lbKEm021gkLiJyEUJSUFTEDjj9eOgErc08qc1sKZRaKYm/OnCUMBRk1b59B6Sn0XLthsdsoIsCvNivs8chJlRlOnLxCv10+ARL7TlS+xYvKxDjNaxFQyaE1YdPsjIDX+zMoNSKSSVO7KCEoWCg0lKfRqksAdqhC5eptSaGvw7uwRIWeDOydWNan3mKJVJoUKUitQ9hdhERnVJrUP+m9bQZ77I2212ib3cfZP+ekph6qgC+ImDum7mICWTFY/cwgZQ18DNeWLCa3vxxC+vD1Pr0vsGs7S9KGIoSAXFgQ276mIF8pOzB0VjUM4e5B3PrwuTH+DPmUcJQlJgRH81jkbGoJR5OYEMQiwk4tnvy5Uf5qDmUMBRB4fE5y9lyKkqZlQUnr2RrzvdFdo4jW7uu5uXT1dx82nX6Ais30KN+bVrzxL381b5RwlAEjWkbfmbLqBXj/SucHyjrj55im3u4tpkoJYD9GLOzmhKGIqJAFPDzC36iZQeOGua6rZGUyDYF06tVps71arJde73GuRmUMBQRBQr3D58+j/dcy8xYLsaFvQvsuWAjsqQbj0oYiojjka+W0gc8QzsK36x+fAzbEQ8mKohQEXE827vDDT9m24mzNOyDb1k7mChhKCIOBDr+rndH3iMW/Nj6zRmmHHCzKFNKEbEgrc8z81bSZe6EV9D8DZz8e6lf5xtpeAJFCUMR0eBcBiq/uieC7p5Wm4kD+yqBooShKBe8umwjE4g70+7pT490bc17/qGEoSg3oDrU22u206dbbxaf+V2fjvTmHX14zzxKGIpyB86vQyD6kdchzRrQwgkjWdssShiKcsus7ftoytodtObISXq4Syv6cPQA/oxvlDDCjcJcKrqMbzonWSo2IIvdlUYzFDjzs8mZl0WkXc7cLLLEVyaKq0wWXLElPy5aVvzjp62a/7GOJvVqT/89uCcfNSZgYSCTxKhPvuM9MenVq9B7o27nvZKDrBAZ5y7xnhgcmokkHMd+pMLDizQxHKGiS/upKOsQf8ZFTMU0iqncWBNJfbJWb0O2FmPJYrtZR6IkOPMuk+PEGio8uoIK988lZ46rkIwIS0I1sjUdQba0fmRN7amJxZWd0F/yNrzOfqYH/A5MHHUz1CPYoBDNHzTnvEpCHH05fhgflROwMPacvUit/v4J74lBJgfH60/zXsmxvvgvdkpLRsuaKbT7uQd5L7xx5l6i/M3/oPytU/iIOWIqNSBb83vJ3nI8xSSn8lH/Kfj5E8rf9CYVXXVVbfWHmOR6FNvlObK39v//GsLI1y4RyZMu8lbpgeztuC99RdkGvAtyhuc1NQI3sV7OqqTgc4xEAc5muzJzhzsF+2bT9a+G+S0KgJkFN9b1T7tT7qoXyXFuJ3/GHEUX9lLOwocod/kzAYkC4H14Pz4HnxdJvDLwFkqrnMx7cgIWxumr13nLmPc3uIK9SoqZzzl/LUcTh7nfq6wo2DWdchdPpKKLJatn7Sy4Ro7Di9kMYhbHibWU8904KjwQHJMFn5Mz/35yHF/NRyIDOOK+KHVhTONRkCXF7OecCWNh4AbKXfEc74mB7Q6fwlq7G8VUaarZj/LwaWbrx5pLQlB4aBG7iTHjGAFfwlq9LbvQ9kXRlUztc8dS4cH5fKR8UKqmFMgpKKR9PhxmX+D9+BwznDEp2FDjzD5JuStf4L3ixKQ0p/hB71HSxMNU4cFNlDh6EVV4YAMlP3GKkh75hRLH/ECx3V5kr9OJ7fgEbxlTdG4X5S55nJz54iKT+My43n/Vfs4+Sno0gxLvW8kutDGG59x/rjfOguuUt+6vzJkvLwR1xkiQxMTrsfOB4s/7w9XPyF31e6n5ZGs4kBLvWUD2ZqP5iCeWxBpkrdWZ4jRhVBi/lpJ+c4ji+/6dYqoWz/kkAg6v7KbFDZ941zcU2+G32s8pnh8KY3gOrzESR9HFjIB8pnAlcGFkF58xZNU/3y+hMPx5/9lr4TljOM64ch15Y63RgeJvf5ss8eZrbWN/wd7217xnTP72qZoZtZD3PLGm9mJCs1SoxUfk4DV4Ld4jI3/bO34vBoQrQZ0xZNU/L+XkBVyaFu/D+91BOhS7Vfyrh6Pz7cw+xUwpEfZW44Xf1EHBkU8F29/jHU9iqrWmhKHTec888QOmkCVJkuGvMFdzyMuHrxFUHyMlId6jiLk7gdZUEL0P6eBlIgxHU6roUgZvFQcmUmlReHABc45F2FuO05zrqrxnHmw4xrafyHvFKTz8PW9FNgEJIzuvQDhjwJTq10Sciv39jYEV+RC979ddIQyxAMNxxsCOtgxLcl3eCj4Fh8SRCZakVLI3N59jyZvY9o9pJuDNssPuFJ3fzXbSI52AhKEXLfSGCaOx+A8NISFZsD/g9d4ChAnVKKWSdMY4JxEGarj1e+8r6jdVu/Cot7XLX1AM3v397heiOr1xaiaGjMLMpbwVXDBTYMYQYWvQ3xUHFSgxdrLWlu8cO46u5K3IJTBhSIqSu4RRT7o69bmf5XBFr5/QxXXwpKrEZJOZUgOaptHKg8fZ+WD2qLe168udclNHBOK13N/vfiHE2RsjH6Lg5xm8FVzYppvmY4iw1evLW4Fjrd2Vt4oTabvhIoI6Y+BbHEmuZJVt/N3sE71eL1go9zHEM0b/9DRKihMn3Ppks39/SKOFBPd6cTpYbpXhOLGaLacGG8eZrbxVHAQDlhRrWj/eKo7jYrQKw2DGADJzKvPSFTqiXWbA6/B6b1AvDsiEgbylqPHgDYqJDGgqzqu64BeEeZsn47x4w1IvDeyNrW4v7U6K473iIPYp2OIokgjDn2VhI2CKyULRnVdPGEbqRgJB9zHAbRIHHJit1Sx63T28wiiQmVJAtisPc0rG1hNnecs3GefEMwbKcgnRbHJ7+l28IwbiQLgIYqBKirMwhxxnd/CeJ8ESBsA5DRlFF0oWC1bWlMqMgZTwqM4jwuwutuh1E9yCv2QzBpDFS6GcljXGwnue+LOcvF8yY/Q0qOBjbz6Wt+QgwDDn21GaQ76cjwRG0WnxZiIIpjBwiEmGsyCbtyKT4M4YCTdv1tskfgbino661XgTgedF8VWD3RxbQ2EIlpJBk6qVpebUx1v28JYx8GFkppRu5omw1utDcX1e4z05jlMbKWfuPZS77OmAI3CNZh1LXGhmDGe+8d843AlIGKcNnG8do9Kys32sAome9/48Q1PKYC9DZk5l5eSxZVhfoFqp6FhIrNXqM84fG2MIFDRDwe4ZdP3LQa44J39vMiNhBNOUijc4xZcfjTOGD1MKwJSCSSXCl9kiet7djAKBmFIA5pSMubsP8pYcCEMEiiOaAYGCCUOmmwrphiDYoSRNIBCKWYzMmFD5GFE3YziKnMJVH+C9fyFzwneeOi/9dsY4nvdmXEfPyM5ATCnQplY1qf9jxpySCaNzXbkZ5Q2WSxPHLCZ72wl8xBiYVDCtYGKZ8T8MHfigzhhyYcj2UCIFv4WRnS/+B4vqERiVnZKZU6Jx9zrTOggJsYj9aJ+HlWR+BorA5zuKeE/M3rNi/8IfYYCYSg0pvu/fKPHueWRrNISPGgNR6P6H7GwFI99AGMgCEiys8i8niq3AG5GJ38K4mlfAW55UcXO8dfpr9rxsbV+2Cy4a1zf13MHqkixeChlMjBhoYE7N32NsTu2TzBiyGDFfWOv2ooQ7PqP4gVPZqTkzMP9jZh8quiCZ4azyUl9IixMskNBBhsUeZcLIzhPPGCmSCjYyJxzfzie9fBX0Me6NHgbiTTWJOYXChEZ0rVdLuoKEou4y8LmiFbVeDev4VcZKhL35GGZexfX4o8kjpUfp2me9hNGzRjmgWN6oIGEsjMjNQwUCMKXEM0aleLEw7mzZiLeK4202icyo1EpJ0lAO2cqUUW02HZk5ZRTPJfMvBqWbT0hgiDWOYjs/45f/kTN3jOZTeJmOBjdlMI+fGgmDom3GkJlScTYrb3kypHkDFo4hwnt3W7TbLTKjdJLjxCaDrxkDGJlTKJwuYtl+cboZWQhMoOj+R8KIL8la5xY+KgYh7XlrJvOeC8MZI4imFOUpU+oGMlNKJgzQr4n4xkFOUX0FCY/oe2MkDBQKEXHFhDBubVSXVeYRMW+PZzZAnfl7i49jidpox7sk2Or3Z2fBfQX9FR7yDC83MmNCZUpZa3XircgkaKaUkTBGt03nreLo5pPIjIrXPrNBFXl6mAqx4vB2LCnnFTp4T85AyaqZaObCpua6zFO8d5NQFHzHvofRyhWOzrrndrJUlhdMCYUwrLW6aKqWb8BGAiGZMeBnyHwQ/SYUm1HGRT9kMwYoiTmFqF7vkJTv94mPiJbWbOFNbPvf8pYYx/ndvKX9UZNT5cdWkTQ6wAyE7kBgsk280jyuGyqC6GMYl5OV2eE/avb8uewc9uiNkRkFjIRhxpzCjIHTgCLme5lTqC8toleIhIFlXVuDgbxXHBwpdQfJDmQ4TqzjrcBBMmoZMdXb8FbkEjRTCmaPEeO9dq7dEZlRoFNd+QEfYLREambGQHJfmTnl7mdAZPP3FD+z0bJGCiu6HiosFeV7Jc5szy+WmBS5+eo4WXJhFEqEgbIF1tQevBe5hMSUAqPaNJWGfM/eVdyMured/A+rY2hKmViyBTJzCitTetqeFQeOUb6juM8yrIXk/EVp4ZTvynvnhrLVkd+cyDMlyx5iBqxsFR5ezHue2JqMYJlEIh3/TakAnG8d2WYfzk9748uMAsamlPj39AYzRq1k8dKibk4t1YQhwmhRoTTwNpfcKSaMptoNKskc6Lx+jgq2T+U9/yn45YtiM5SOral/Jb3CleDNGFbfwvCOkDVCZuK4U1LnG+AzZCtLMKccTid9J1i+xWk9o/MXwYYVlTEQBjJ/eGO0zJu//b2A0tw4r52mgp8/5j1PrDU7ar+H+XJe4UwAwgjMxwBj2zfjLWMQY2UG2XItMON868jMqYMXspgZJTqnPtrtmK0ZHGe3B3wOGqs/uUsnSaNmY6o0EW4E2n3sf+St/iNvmef6nLulB6hiOz7JW5FP0JxvX6tSOr0b+q4CZMaMAsHwMcBtTdLYQSNvsFq2QmDmYW/FX2HgW/b67MGUt+olv+pJQFDIVO44tYGPFMfeSlzZCKYUKh/JwAyEsx4oM+YLx+lNdG1GN6kocHS3vJhRwO9SY92nzGL1zLyZevftNLG772W6GVv20oNfiB03Hecbz/CWMXCQ+7w7m/c8mTygu89yUu4MmPYNLd1/lPdcILkbwsm9N/aev7UTvTGsN+/5Bjf39Vm38Z4Ltvxavz+rgRFTrZWHw4qZpejSAWbLy8wWHRyZTbzrW94TUJhL178eRo4z2/iAGOxU2xrfwdLixCTVIUtsMgtURKHMwn1fUYF2ybDEp7Ad+pgU3xaBUakxlDnwF2SA19E/1+nIJ4stnq2OOY6j3p/zxmfrP99XWTO/hdH6zRm0+8wF3rvJR2MG0q86m0tLb3nhn7xVnPZ1qtO2Z8bxnjHI7NHpXzN5zxN/C5//z4rN9PtF5r7JNz51n1/+Re7yZ33e4Li5kNa/KOsAs+PNgBkhYeiHUidbB6tQOQsf1qYIcwsS/mBJTmXZ2m1p5pK4GQkjENxvcBS9xG583uo/UXz/t9hY3vrXyZl9nBKGz9L+n9Ipe1o6++LxJYwATCmJ823Cx9DpniZPO++Pgx4sUwqMbCWPAnZneMtGfokCNzkSrvkKJXfmXmTJ10yLQptlzIgC2BoNpcSRs1nO2mCCkgAJA941LYrSBhWmGLY41tb79tYPU/7O95npaK3Rno35wv/lWqnzbc7HAI92k5tcvsJA3DFervVPGM1rpFDNZN81tZ/qae4/VgfLqHHdf++qiKQ5p8GIOkVC5sSRX5sShY61rmZyDZ/JzLdgASHnLn2SCvZ+zkfCA4tXcjtrzfZUoAkDtULsbbSZ0wRBW5XyZ8aQOdf1KidTosFKkzfBWK51p11t413sBzu1MEzaZgSKSMb1+jMl3ruE7G0f0f56fv/Xs6XQ+AHvUPzAdw3TfspAqAZC2ZGpJFjRr/BDcpc8Qdc+0m4+PxI2lBr4fxVkfYT/VJgxx/QxYr99jFeWrOctT3o3SpXmkhIh+xx/HGacz35t+UbeK44/nwWeX/AT/X2VOFkZwkc2PDXW77PdMpApsOjiPnLCwb2SyW4wJ390BzewVfuWhyiwTxBMULDSdS1kplwxYuwUU7khE3VMxYZsZcooJy7AIoK93W/I3uoB5sB7E+xUpO7ON0AMV+HJdTfG8fNsMKmsdirMXKbN3v/Jxrzf543fwijP3D9zkfQE39O9OtA/77yV98ofzvxsV0g6omZzs9hhKTjW3hTsnUV5q170mR4HVZcgDl83YLji/3xejtkiyV+LVD1P9hQXSikv4NRfTHJdFpWLpWSRKIC9xVhKeiyTYjs/y0fEoMxyXKeneS/yUMLgoOAL6l6IgMON9J6Km8T1eJkVq7Q1HsZHPInt8jvNsDdIrxPmKFNKAwVfUA1JBHa4vxwv/uMrXGDnPG/9azdqDdoaD6eEYcb7NuFO1M8YODk48etlvOcJzoQrUfgGwYoVHlh/Y3c5tt0j7DGSiYoZAzOCO8i9i+QLO0+fp+mb5BGrZkNTFDdBLJU/+yvhSlQIA0vDkyXLwyJwcnDzpPt5TxGNKOfbC/gUShQKJQxOnYoVWESu8ikUICpMKUQDf6U52XC03SODE+02alYjhUa0bMTityAOhQJE3XItMqGjHDE27USlhxUKoPYxFAoBysdQKIpB9P8mf4ZlkH0SBwAAAABJRU5ErkJggg==;" vertex="1" parent="1">
          <mxGeometry x="843.85" y="436" width="63" height="42" as="geometry" />
        </mxCell>
        <mxCell id="79dWbAI17CPbcTGJxEno-17" value="&lt;font style=&quot;font-size: 15px;&quot;&gt;ADO MCP Server&lt;/font&gt;" style="rounded=0;whiteSpace=wrap;html=1;" vertex="1" parent="1">
          <mxGeometry x="580" y="295" width="160" height="40" as="geometry" />
        </mxCell>
        <mxCell id="79dWbAI17CPbcTGJxEno-18" value="&lt;font style=&quot;font-size: 15px;&quot;&gt;MySQL MCP Server&lt;/font&gt;" style="rounded=0;whiteSpace=wrap;html=1;" vertex="1" parent="1">
          <mxGeometry x="580" y="425" width="160" height="40" as="geometry" />
        </mxCell>
        <mxCell id="79dWbAI17CPbcTGJxEno-22" value="" style="endArrow=classic;startArrow=classic;html=1;rounded=0;exitX=1;exitY=0.5;exitDx=0;exitDy=0;" edge="1" parent="1" source="79dWbAI17CPbcTGJxEno-2">
          <mxGeometry width="50" height="50" relative="1" as="geometry">
            <mxPoint x="753.44" y="250" as="sourcePoint" />
            <mxPoint x="803.44" y="200" as="targetPoint" />
          </mxGeometry>
        </mxCell>
        <mxCell id="79dWbAI17CPbcTGJxEno-23" value="" style="endArrow=classic;startArrow=classic;html=1;rounded=0;exitX=1;exitY=0.5;exitDx=0;exitDy=0;" edge="1" parent="1">
          <mxGeometry width="50" height="50" relative="1" as="geometry">
            <mxPoint x="747.41" y="314.5" as="sourcePoint" />
            <mxPoint x="810.85" y="314.5" as="targetPoint" />
          </mxGeometry>
        </mxCell>
        <mxCell id="79dWbAI17CPbcTGJxEno-24" value="" style="endArrow=classic;startArrow=classic;html=1;rounded=0;exitX=1;exitY=0.5;exitDx=0;exitDy=0;" edge="1" parent="1">
          <mxGeometry width="50" height="50" relative="1" as="geometry">
            <mxPoint x="747.41" y="444.5" as="sourcePoint" />
            <mxPoint x="810.85" y="444.5" as="targetPoint" />
          </mxGeometry>
        </mxCell>
        <mxCell id="79dWbAI17CPbcTGJxEno-26" style="edgeStyle=orthogonalEdgeStyle;rounded=0;orthogonalLoop=1;jettySize=auto;html=1;entryX=-0.037;entryY=0.605;entryDx=0;entryDy=0;entryPerimeter=0;" edge="1" parent="1" source="79dWbAI17CPbcTGJxEno-5" target="79dWbAI17CPbcTGJxEno-17">
          <mxGeometry relative="1" as="geometry" />
        </mxCell>
        <mxCell id="79dWbAI17CPbcTGJxEno-28" value="&lt;span style=&quot;font-size: 15px;&quot;&gt;MCP Protocol&lt;/span&gt;" style="text;html=1;align=center;verticalAlign=middle;whiteSpace=wrap;rounded=0;" vertex="1" parent="1">
          <mxGeometry x="380" y="174" width="130" height="30" as="geometry" />
        </mxCell>
        <mxCell id="79dWbAI17CPbcTGJxEno-29" value="&lt;span style=&quot;font-size: 15px;&quot;&gt;MCP Protocol&lt;/span&gt;" style="text;html=1;align=center;verticalAlign=middle;whiteSpace=wrap;rounded=0;" vertex="1" parent="1">
          <mxGeometry x="380" y="294" width="130" height="30" as="geometry" />
        </mxCell>
        <mxCell id="79dWbAI17CPbcTGJxEno-30" value="&lt;span style=&quot;font-size: 15px;&quot;&gt;MCP Protocol&lt;/span&gt;" style="text;html=1;align=center;verticalAlign=middle;whiteSpace=wrap;rounded=0;" vertex="1" parent="1">
          <mxGeometry x="390" y="420" width="130" height="30" as="geometry" />
        </mxCell>
        <mxCell id="79dWbAI17CPbcTGJxEno-32" value="&lt;font style=&quot;font-size: 14px;&quot;&gt;(VS Code with GitHub Co-pilot, Claude IDE)&lt;/font&gt;" style="text;html=1;align=center;verticalAlign=middle;whiteSpace=wrap;rounded=0;" vertex="1" parent="1">
          <mxGeometry x="150" y="160" width="200" height="30" as="geometry" />
        </mxCell>
        <mxCell id="79dWbAI17CPbcTGJxEno-33" value="&lt;font style=&quot;font-size: 30px;&quot;&gt;MCP Architecture&lt;/font&gt;" style="text;html=1;align=center;verticalAlign=middle;whiteSpace=wrap;rounded=0;" vertex="1" parent="1">
          <mxGeometry x="294.44" y="51" width="509" height="30" as="geometry" />
        </mxCell>
      </root>
    </mxGraphModel>
  </diagram>
</mxfile>
